{"glyphs":{"0":{"ha":825,"x_min":0,"x_max":0,"o":"m 21 519 b 414 1053 21 847 189 1053 b 804 535 628 1053 804 854 b 413 0 804 269 679 0 b 21 519 172 0 21 225 m 176 518 b 411 132 176 217 318 132 b 646 535 493 132 646 200 b 410 917 646 817 525 917 b 176 518 285 917 176 804 "},"1":{"ha":361,"x_min":0,"x_max":0,"o":"m 233 1050 l 257 1050 l 257 153 b 286 0 257 58 275 21 l 56 0 b 101 213 96 69 101 139 l 101 872 l 0 875 "},"2":{"ha":738,"x_min":0,"x_max":0,"o":"m 93 753 l 90 789 b 386 1050 90 897 185 1050 b 672 794 574 1050 672 910 b 564 531 672 689 597 578 l 511 451 l 272 119 l 501 119 b 715 210 567 119 625 119 l 696 -8 b 347 3 547 0 404 3 b 11 -8 286 3 143 -1 l 11 0 b 428 576 101 117 392 521 b 522 785 494 676 522 729 b 372 924 522 886 433 924 b 215 758 300 924 215 871 b 232 664 215 724 222 696 "},"3":{"ha":753,"x_min":0,"x_max":0,"o":"m 744 1042 l 744 1025 l 600 797 b 471 574 531 685 496 618 b 593 497 508 560 550 544 b 667 308 640 447 667 378 b 332 -8 667 192 578 -8 b 25 99 219 -8 110 26 l 151 276 b 346 101 179 139 283 101 b 532 288 471 101 532 204 b 415 464 532 361 482 433 b 263 493 363 489 318 490 l 400 703 b 518 914 433 753 486 856 b 349 928 469 924 442 928 b 53 831 140 928 101 888 l 57 1042 "},"4":{"ha":796,"x_min":0,"x_max":0,"o":"m 601 1050 l 601 497 l 656 497 b 781 525 732 497 754 510 l 781 357 b 639 383 743 372 718 383 l 601 383 l 601 247 b 639 0 607 136 610 86 l 415 0 b 450 258 425 36 450 133 l 450 383 l 22 383 l 22 497 b 169 663 75 542 124 600 l 383 956 l 450 1050 m 454 497 l 454 869 l 183 497 "},"5":{"ha":708,"x_min":0,"x_max":0,"o":"m 701 1042 l 635 901 b 439 944 556 939 533 944 l 272 944 l 272 606 b 344 611 283 607 318 611 b 639 317 482 611 639 504 b 293 -8 639 135 490 -8 b 8 89 254 -8 143 -3 l 93 239 b 290 118 138 185 190 118 b 471 308 397 118 471 208 b 268 510 471 426 381 510 b 125 472 224 510 183 497 l 125 911 b 104 1044 125 992 114 1019 "},"6":{"ha":694,"x_min":0,"x_max":0,"o":"m 631 1042 b 464 824 546 954 481 851 l 329 599 b 386 603 338 600 367 603 b 675 303 538 603 675 482 b 347 -10 675 135 546 -10 b 32 286 168 -10 32 107 b 132 564 32 360 58 438 l 285 825 b 339 925 303 857 317 883 b 385 1042 368 979 381 1004 m 356 474 b 179 296 268 474 179 404 b 360 118 179 193 258 118 b 536 294 475 118 536 214 b 356 474 536 399 453 474 "},"7":{"ha":708,"x_min":0,"x_max":0,"o":"m 39 0 b 160 222 86 71 125 146 l 467 921 l 243 921 b 24 851 139 921 113 906 l 24 979 b 14 1050 24 982 22 1013 b 88 1044 38 1047 63 1046 b 174 1042 114 1043 143 1042 l 700 1042 l 640 921 l 286 158 b 243 0 269 121 243 64 "},"8":{"ha":694,"x_min":0,"x_max":0,"o":"m 517 553 b 672 304 658 474 672 354 b 347 -11 672 132 519 -11 b 22 304 175 -11 22 133 b 178 553 22 351 33 472 b 53 774 131 590 53 653 b 347 1051 53 919 168 1051 b 642 774 526 1051 642 919 b 517 553 642 653 563 590 m 346 928 b 181 763 257 928 181 856 b 346 597 181 669 256 597 b 511 763 436 597 511 671 b 346 928 511 856 436 928 m 346 478 b 171 303 250 478 171 400 b 347 128 171 207 249 128 b 522 303 444 128 522 207 b 347 478 522 400 443 478 "},"9":{"ha":694,"x_min":0,"x_max":0,"o":"m 93 0 b 238 201 149 61 196 131 l 383 444 b 331 442 369 443 349 442 b 31 739 194 442 31 538 b 364 1049 31 892 132 1049 b 676 753 574 1049 676 901 b 597 524 676 713 675 667 l 351 72 b 331 0 335 40 331 28 m 349 928 b 169 749 250 928 169 849 b 349 569 169 650 249 569 b 526 749 446 569 526 650 b 349 928 526 849 446 928 "}," ":{"ha":463,"x_min":0,"x_max":0,"o":""},"!":{"ha":304,"x_min":0,"x_max":0,"o":"m 281 1042 b 218 800 256 1008 218 958 l 218 513 b 154 285 219 440 219 404 l 139 285 b 78 493 92 378 78 407 l 78 779 b 18 1042 78 954 50 994 m 144 213 b 254 103 204 213 254 164 b 144 -7 254 42 206 -7 b 35 103 83 -7 35 42 b 144 213 35 164 85 213 "},"\"":{"ha":492,"x_min":0,"x_max":0,"o":"m 64 888 l 64 1051 l 203 1051 l 203 888 l 172 699 l 97 699 m 289 888 l 289 1051 l 428 1051 l 428 888 l 396 699 l 322 699 "},"#":{"ha":926,"x_min":0,"x_max":0,"o":"m 765 333 l 626 333 l 585 36 l 485 36 l 526 333 l 361 333 l 319 36 l 219 36 l 261 333 l 122 333 l 122 426 l 274 426 l 301 618 l 163 618 l 163 711 l 314 711 l 354 1008 l 456 1008 l 414 711 l 579 711 l 619 1008 l 721 1008 l 679 711 l 806 711 l 806 618 l 667 618 l 639 426 l 765 426 m 401 618 l 374 426 l 539 426 l 567 618 "},"$":{"ha":694,"x_min":0,"x_max":0,"o":"m 399 1049 l 399 988 b 588 978 519 976 532 976 l 588 761 b 399 860 519 826 474 851 l 399 579 b 657 281 492 540 657 457 b 551 51 657 157 597 86 b 399 -6 504 14 456 4 l 399 -169 l 290 -169 l 290 -6 b 68 22 193 -1 147 6 l 68 242 b 290 122 149 163 193 133 l 290 439 b 39 724 165 494 39 550 b 133 939 39 819 82 899 b 290 989 185 981 243 985 l 290 1049 m 290 861 b 181 749 224 853 181 819 b 290 625 181 672 229 651 m 399 125 b 518 249 508 131 518 229 b 399 389 518 288 503 349 "},"%":{"ha":1331,"x_min":0,"x_max":0,"o":"m 994 399 b 879 236 939 399 879 357 b 994 83 879 143 925 83 b 1113 247 1113 83 1113 221 b 994 399 1113 349 1056 399 m 994 506 b 1240 240 1139 506 1240 400 b 996 -26 1240 90 1147 -26 b 751 240 853 -26 751 89 b 994 506 751 392 849 506 m 1003 1049 l 422 -26 l 331 -26 l 913 1049 m 333 1051 b 579 786 478 1051 579 946 b 335 519 579 636 486 519 b 90 786 192 519 90 635 b 333 1051 90 938 188 1051 m 333 944 b 218 782 278 944 218 903 b 333 629 218 689 264 629 b 451 793 451 629 451 767 b 333 944 451 894 394 944 "},"&":{"ha":1172,"x_min":0,"x_max":0,"o":"m 1058 865 l 1058 735 b 869 753 997 747 953 754 b 821 281 879 667 871 449 b 1161 78 957 160 1003 142 l 1021 -7 b 763 161 951 3 922 15 b 661 65 739 131 713 97 b 379 -10 594 24 486 -10 b 33 258 211 -10 33 71 b 183 506 33 414 142 482 b 110 671 150 539 110 581 b 338 885 110 804 219 885 b 554 681 472 885 554 781 b 478 518 554 592 499 539 b 714 383 535 496 608 465 b 746 753 744 525 747 649 b 599 746 704 754 693 754 l 599 865 m 332 765 b 229 671 268 765 229 721 b 332 576 229 613 283 576 b 436 674 382 576 436 613 b 332 765 436 725 393 765 m 663 254 b 322 443 556 353 478 393 b 174 274 288 429 174 382 b 390 121 174 193 244 121 b 663 254 519 121 604 172 "},"’":{"ha":333,"x_min":0,"x_max":0,"o":"m 329 1042 b 164 721 318 972 294 882 l 31 721 b 132 950 67 769 132 860 b 113 1042 132 983 125 1007 "},"(":{"ha":449,"x_min":0,"x_max":0,"o":"m 442 1028 b 282 915 385 1011 329 994 b 208 372 214 801 208 518 b 435 -203 208 -101 308 -165 l 435 -214 b 338 -226 410 -221 390 -226 b 31 393 179 -226 31 -194 b 324 1050 31 982 154 1050 b 442 1042 383 1050 410 1046 "},")":{"ha":449,"x_min":0,"x_max":0,"o":"m 7 -204 b 167 -92 64 -187 119 -171 b 240 451 235 22 240 306 b 14 1025 240 924 140 989 l 14 1036 b 111 1050 39 1044 58 1050 b 418 431 269 1050 418 1018 b 125 -226 418 -158 294 -226 b 7 -218 65 -226 39 -222 "},"*":{"ha":694,"x_min":0,"x_max":0,"o":"m 260 528 l 32 496 l 172 678 l 32 860 l 260 832 l 349 1049 l 436 832 l 664 860 l 526 678 l 664 496 l 436 528 l 349 315 m 349 776 b 253 679 296 776 251 733 b 349 583 253 626 296 583 b 444 679 403 583 444 628 b 349 776 444 732 403 776 "},"+":{"ha":926,"x_min":0,"x_max":0,"o":"m 407 703 l 521 703 l 521 408 l 814 408 l 814 294 l 521 294 l 521 0 l 407 0 l 407 294 l 114 294 l 114 408 l 407 408 "},",":{"ha":347,"x_min":0,"x_max":0,"o":"m 335 276 b 111 -187 322 199 301 68 l 14 -187 b 129 181 83 -47 129 72 b 114 276 129 224 122 247 "},"-":{"ha":390,"x_min":0,"x_max":0,"o":"m 33 449 b 206 431 92 439 139 431 b 371 449 264 431 303 436 l 371 281 b 194 299 290 296 214 299 b 33 281 125 299 67 288 "},".":{"ha":333,"x_min":0,"x_max":0,"o":"m 168 214 b 279 103 229 214 279 164 b 168 -10 279 40 229 -10 b 57 103 107 -10 57 40 b 168 214 57 164 107 214 "},"/":{"ha":767,"x_min":0,"x_max":0,"o":"m 569 1053 l 303 -8 l 182 -8 l 447 1053 "},":":{"ha":333,"x_min":0,"x_max":0,"o":"m 168 214 b 279 103 229 214 279 164 b 168 -10 279 40 229 -10 b 57 103 107 -10 57 40 b 168 214 57 164 107 214 m 168 729 b 279 618 229 729 279 679 b 168 506 279 556 229 506 b 57 618 107 506 57 556 b 168 729 57 679 107 729 "},";":{"ha":347,"x_min":0,"x_max":0,"o":"m 336 276 b 111 -187 322 199 301 68 l 14 -187 b 129 181 83 -47 129 72 b 115 278 129 224 124 247 m 208 729 b 321 618 269 729 321 679 b 208 506 321 556 269 506 b 97 618 147 506 97 556 b 208 729 97 679 147 729 "},"<":{"ha":926,"x_min":0,"x_max":0,"o":"m 817 -11 l 111 301 l 111 401 l 817 714 l 817 600 l 256 351 l 817 103 "},"=":{"ha":926,"x_min":0,"x_max":0,"o":"m 814 435 l 114 435 l 114 549 l 814 549 m 814 154 l 114 154 l 114 268 l 814 268 "},">":{"ha":926,"x_min":0,"x_max":0,"o":"m 672 351 l 111 600 l 111 714 l 817 401 l 817 301 l 111 -11 l 111 103 "},"?":{"ha":593,"x_min":0,"x_max":0,"o":"m 64 1019 b 221 1050 104 1036 140 1050 b 575 729 465 1050 575 886 b 350 411 575 508 413 439 b 176 290 215 353 206 344 l 161 290 b 154 422 158 315 154 367 b 206 492 154 467 172 482 b 419 725 286 518 419 560 b 217 929 419 854 317 929 b 54 867 138 929 92 894 m 181 207 b 290 97 242 207 290 157 b 181 -14 290 38 242 -14 b 71 96 119 -14 71 36 b 181 207 71 157 119 207 "},"@":{"ha":1403,"x_min":0,"x_max":0,"o":"m 1067 81 b 747 -8 967 28 868 -8 b 167 500 346 -8 167 292 b 729 1053 167 832 428 1053 b 1236 600 1014 1053 1236 861 b 950 233 1236 444 1135 233 b 811 342 847 233 808 321 l 808 342 b 633 233 794 318 721 233 b 483 424 583 233 483 260 b 786 796 483 542 582 796 b 894 719 832 796 871 778 l 908 776 l 1019 776 l 924 392 b 974 292 914 365 911 292 b 1161 600 1082 292 1161 450 b 729 997 1161 782 996 997 b 296 483 501 997 296 814 b 744 54 296 251 499 54 b 1049 131 882 54 961 88 m 803 724 b 604 439 729 724 604 611 b 692 310 604 351 642 310 b 864 624 756 310 844 413 b 803 724 864 688 847 724 "},"A":{"ha":1100,"x_min":0,"x_max":0,"o":"m 929 285 b 1092 3 1004 122 1053 56 l 844 0 b 801 183 844 46 839 99 l 740 324 l 375 324 l 322 211 b 269 0 304 172 264 82 l 15 0 b 167 249 50 40 81 78 l 568 1046 l 576 1046 m 433 446 l 686 446 l 565 725 "},"B":{"ha":708,"x_min":0,"x_max":0,"o":"m 313 1042 b 644 783 572 1042 644 878 b 506 558 644 660 560 599 b 693 288 607 497 693 404 b 515 38 693 172 599 67 b 311 0 457 17 379 -1 l 75 3 b 115 300 111 115 115 239 l 115 768 b 79 1042 115 957 93 1007 m 269 564 b 474 775 382 593 474 654 b 269 953 474 893 382 943 m 269 93 b 518 294 510 89 518 260 b 269 544 518 372 475 494 "},"C":{"ha":911,"x_min":0,"x_max":0,"o":"m 875 844 b 604 919 814 876 728 919 b 210 515 372 919 210 747 b 593 119 210 303 349 119 b 900 232 753 119 843 189 l 892 71 b 567 -8 825 38 731 -8 b 44 499 163 -8 44 311 b 651 1051 44 776 278 1051 b 875 1011 760 1051 824 1029 "},"D":{"ha":882,"x_min":0,"x_max":0,"o":"m 113 757 b 71 1038 113 901 83 989 b 179 1043 107 1040 133 1043 b 760 822 371 1043 601 1025 b 864 511 836 724 864 613 b 322 0 864 240 657 0 l 71 0 b 113 317 93 65 113 125 m 268 342 b 276 101 268 224 268 185 b 681 525 586 132 681 361 b 276 946 681 671 607 900 b 268 756 268 882 268 807 "},"E":{"ha":708,"x_min":0,"x_max":0,"o":"m 638 1042 l 558 881 b 271 943 442 933 381 947 l 271 579 l 597 579 l 508 433 b 271 479 389 468 350 474 l 271 99 b 699 174 404 99 478 99 l 622 0 l 76 0 b 115 268 94 61 115 135 l 115 778 b 76 1042 115 849 106 951 "},"F":{"ha":651,"x_min":0,"x_max":0,"o":"m 643 1042 l 558 889 b 263 942 446 933 400 938 l 263 572 l 607 572 l 528 422 b 263 469 456 453 392 471 l 263 236 b 294 0 263 153 271 81 l 72 0 b 107 292 106 131 107 249 l 107 781 b 72 1042 107 929 89 986 "},"G":{"ha":1042,"x_min":0,"x_max":0,"o":"m 901 844 b 571 939 832 881 719 939 b 196 531 394 939 196 810 b 618 119 196 303 350 119 b 801 156 713 119 753 136 l 801 271 b 732 526 801 432 771 474 l 986 526 b 957 346 975 494 957 447 l 957 222 b 976 61 957 153 957 132 b 611 -7 906 33 803 -7 b 36 499 143 -7 36 301 b 167 868 36 631 81 765 b 631 1053 278 1001 410 1053 b 901 1018 757 1053 838 1033 "},"H":{"ha":999,"x_min":0,"x_max":0,"o":"m 322 1044 b 281 806 304 996 281 938 l 281 594 l 726 594 l 726 779 b 686 1044 726 922 704 989 l 924 1044 b 883 767 900 976 883 926 l 883 285 b 924 0 883 113 901 61 l 686 0 b 726 279 708 64 726 113 l 726 463 l 281 463 l 281 290 b 319 0 281 125 301 61 l 83 0 b 124 268 101 49 124 113 l 124 776 b 83 1044 124 925 100 997 "},"I":{"ha":390,"x_min":0,"x_max":0,"o":"m 317 1042 b 278 767 297 981 278 924 l 278 288 b 317 0 278 169 286 110 l 82 0 b 122 299 103 65 122 125 l 122 794 b 82 1042 122 913 108 978 "},"J":{"ha":535,"x_min":0,"x_max":0,"o":"m 78 1042 l 438 1042 b 408 697 413 971 407 833 l 411 378 b 367 -47 411 65 385 -3 b 107 -222 300 -212 128 -222 b 19 -208 79 -222 33 -211 b 257 363 165 -133 261 -56 l 254 656 b 257 918 254 722 254 844 l 192 921 b 35 904 146 922 79 913 "},"K":{"ha":940,"x_min":0,"x_max":0,"o":"m 319 1042 b 278 783 294 972 278 926 l 278 579 l 546 906 b 626 1042 613 985 618 1008 l 890 1042 b 644 803 822 992 740 919 l 457 579 l 811 133 b 929 1 850 85 858 72 l 675 0 b 563 203 661 50 646 101 l 278 561 l 278 261 b 314 0 278 144 301 44 l 79 0 b 121 274 108 89 121 181 l 121 817 b 85 1039 121 886 107 972 "},"L":{"ha":694,"x_min":0,"x_max":0,"o":"m 599 0 l 90 0 b 132 335 117 67 132 107 l 132 794 b 96 1040 132 944 113 994 l 329 1040 b 289 785 308 986 290 939 l 283 106 b 685 196 469 122 574 151 "},"M":{"ha":1229,"x_min":0,"x_max":0,"o":"m 239 1042 b 329 897 257 999 274 965 l 614 543 l 925 928 b 1000 1038 956 965 969 982 l 1204 1038 b 1121 788 1161 986 1121 939 l 1121 275 b 1168 0 1121 200 1122 101 l 918 0 b 964 258 953 78 964 158 l 964 753 l 614 317 l 261 753 l 261 232 b 306 0 261 215 261 100 l 58 0 b 106 278 79 49 106 117 l 106 928 l 3 1042 "},"N":{"ha":1100,"x_min":0,"x_max":0,"o":"m 261 1042 b 372 865 281 994 290 969 l 843 268 l 843 742 b 814 1042 843 933 831 982 l 1014 1042 b 988 819 1000 986 988 931 l 988 260 b 1022 0 988 99 1007 43 l 829 0 b 740 150 811 56 776 104 l 297 717 l 297 306 b 339 0 297 214 307 85 l 118 0 b 153 275 151 108 153 256 l 153 901 b 13 1042 103 965 75 992 "},"O":{"ha":1172,"x_min":0,"x_max":0,"o":"m 49 532 b 619 1050 49 764 257 1050 b 1138 525 964 1050 1138 789 b 593 -7 1138 200 888 -7 b 49 532 257 -7 49 265 m 224 556 b 636 106 224 274 438 106 b 976 486 868 106 976 324 b 568 939 976 703 811 939 b 224 556 358 939 224 757 "},"P":{"ha":681,"x_min":0,"x_max":0,"o":"m 131 763 b 90 1042 131 947 107 1003 l 317 1042 b 668 750 526 1042 668 926 b 326 463 668 522 458 453 l 286 465 l 286 294 b 326 0 286 214 307 81 l 83 0 b 131 340 103 72 131 168 m 286 514 b 504 740 353 525 504 553 b 438 913 504 799 485 864 b 292 972 393 958 342 967 b 286 856 289 938 286 890 "},"Q":{"ha":1229,"x_min":0,"x_max":0,"o":"m 1172 -211 b 1071 -221 1135 -217 1106 -221 b 717 0 976 -221 908 -182 b 671 -6 704 -1 689 -4 b 613 -7 654 -6 635 -7 b 78 522 318 -7 78 244 b 651 1051 78 815 331 1051 b 1167 525 969 1051 1167 817 b 1068 211 1167 403 1129 296 b 926 76 1015 136 965 103 b 1172 -196 997 -22 1072 -122 m 343 822 b 251 546 274 733 251 621 b 664 107 251 317 431 107 b 1004 482 903 107 1004 333 b 606 939 1004 717 831 939 b 343 822 536 939 417 917 "},"R":{"ha":854,"x_min":0,"x_max":0,"o":"m 122 824 b 94 1039 122 946 106 1003 l 297 1042 b 692 744 565 1046 692 885 b 494 467 692 575 542 492 b 839 0 588 303 715 149 l 696 0 b 276 482 556 121 492 196 l 276 225 b 306 0 276 144 278 111 l 94 0 b 122 269 117 103 122 179 m 276 497 b 533 729 375 525 533 569 b 276 953 533 807 485 932 "},"S":{"ha":622,"x_min":0,"x_max":0,"o":"m 554 842 b 357 924 508 878 450 924 b 196 783 267 924 196 865 b 414 558 196 685 283 633 b 606 290 564 472 606 390 b 253 -7 606 118 471 -7 b 74 21 171 -7 122 7 l 74 242 b 278 115 121 188 182 115 b 433 261 368 115 433 188 b 346 399 433 333 376 379 b 35 751 124 538 35 593 b 343 1053 35 917 172 1053 b 554 1003 438 1053 504 1024 "},"T":{"ha":868,"x_min":0,"x_max":0,"o":"m 858 1040 l 786 881 b 514 936 672 926 635 936 l 514 249 b 543 0 514 165 521 81 l 331 0 b 360 265 346 65 360 142 l 360 936 b 28 865 290 938 229 938 l 83 1040 "},"U":{"ha":1042,"x_min":0,"x_max":0,"o":"m 293 1042 b 260 792 269 974 260 936 l 260 413 b 281 269 260 347 265 308 b 519 106 332 143 453 106 b 758 288 632 106 729 190 b 767 392 764 308 767 326 l 767 803 b 729 1042 767 850 767 963 l 951 1042 b 924 829 935 997 924 965 l 924 274 b 951 0 924 201 924 140 l 767 0 b 774 103 774 60 775 72 b 443 -10 713 65 592 -10 b 104 392 228 -10 104 154 l 104 803 b 71 1042 104 961 89 997 "},"V":{"ha":1056,"x_min":0,"x_max":0,"o":"m 269 1042 b 260 986 261 1011 260 1000 b 304 803 260 946 281 865 l 521 251 l 744 785 b 794 974 767 839 794 915 b 782 1042 794 989 793 1004 l 1053 1038 b 915 803 993 968 951 889 l 575 -7 l 457 -7 l 164 746 b 83 925 151 778 115 861 b 7 1042 51 989 39 1006 "},"W":{"ha":1288,"x_min":0,"x_max":0,"o":"m 240 1042 b 235 985 239 1032 235 1003 b 276 775 235 936 263 828 l 401 297 l 654 1038 l 664 1038 l 911 297 l 1046 797 b 1081 988 1060 851 1081 935 l 1078 1038 l 1281 1035 b 1222 867 1249 963 1242 940 l 985 -10 l 861 -10 l 657 600 l 451 -10 l 326 -10 l 121 771 b 31 1039 114 800 76 940 "},"X":{"ha":926,"x_min":0,"x_max":0,"o":"m 276 1042 b 356 858 293 971 321 917 l 467 672 l 568 839 b 654 1042 583 863 642 958 l 889 1042 b 683 740 822 949 731 819 l 556 528 l 688 304 b 915 0 731 233 810 104 l 643 0 b 578 193 644 64 611 138 l 467 379 l 319 138 b 269 0 276 67 272 33 l 29 3 b 228 276 128 111 211 247 l 381 528 l 232 772 b 39 1042 175 867 110 957 "},"Y":{"ha":868,"x_min":0,"x_max":0,"o":"m 271 1042 b 317 888 265 981 290 935 l 463 631 l 604 882 b 658 1042 649 957 661 992 l 868 1040 b 790 924 829 990 800 939 l 540 485 l 540 124 b 568 0 540 114 540 54 l 357 0 b 385 178 372 39 385 68 l 385 472 l 151 888 b 33 1039 101 979 79 1004 "},"Z":{"ha":796,"x_min":0,"x_max":0,"o":"m 726 1042 l 604 799 l 278 108 b 361 104 303 106 325 104 b 783 190 619 104 719 157 l 708 0 l 24 0 b 492 931 181 286 342 606 b 397 936 475 933 429 936 b 38 847 222 936 106 881 l 104 1042 "},"[":{"ha":390,"x_min":0,"x_max":0,"o":"m 375 1042 l 375 946 l 249 949 l 249 -124 b 375 -119 311 -122 328 -122 l 375 -215 l 110 -215 l 110 1042 "},"\\":{"ha":767,"x_min":0,"x_max":0,"o":"m 297 1053 l 563 -8 l 442 -8 l 175 1053 "},"]":{"ha":390,"x_min":0,"x_max":0,"o":"m 281 -215 l 15 -215 l 15 -118 l 142 -124 l 142 949 l 15 946 l 15 1042 l 281 1042 "},"^":{"ha":799,"x_min":0,"x_max":0,"o":"m 451 1044 l 763 414 l 646 414 l 399 925 l 154 414 l 36 414 l 346 1044 "},"_":{"ha":694,"x_min":0,"x_max":0,"o":"m 0 -174 l 0 -104 l 694 -104 l 694 -174 "},"‘":{"ha":333,"x_min":0,"x_max":0,"o":"m 31 721 b 196 1042 42 789 65 881 l 329 1042 b 228 811 293 993 228 903 b 247 721 228 778 235 756 "},"a":{"ha":636,"x_min":0,"x_max":0,"o":"m 143 700 l 235 719 b 299 725 260 725 289 725 b 506 622 433 725 490 649 b 526 517 526 585 526 565 l 532 101 b 558 0 532 85 544 43 l 394 0 l 394 101 b 275 7 342 63 326 50 b 217 0 267 6 239 0 b 33 168 160 0 33 50 b 289 401 33 293 194 364 b 394 454 358 428 365 433 l 394 492 b 386 550 394 528 392 539 b 242 619 367 586 308 619 b 104 572 188 619 149 599 m 394 318 l 208 318 b 182 208 193 282 182 251 b 319 101 182 128 247 101 b 394 114 353 101 371 107 "},"b":{"ha":753,"x_min":0,"x_max":0,"o":"m 283 1046 b 263 899 281 1022 264 919 b 257 761 258 860 257 779 l 257 568 l 363 689 b 469 721 421 717 444 721 b 714 422 543 721 714 671 b 468 38 714 208 606 97 b 228 0 393 6 350 0 l 86 4 b 122 256 115 93 122 136 l 122 761 b 90 1008 122 876 122 922 m 257 107 b 369 96 274 106 351 96 b 563 353 381 96 563 96 b 510 532 563 407 557 483 b 376 592 488 557 443 592 b 257 556 326 592 293 575 "},"c":{"ha":593,"x_min":0,"x_max":0,"o":"m 561 560 b 406 633 529 593 490 633 b 199 381 244 633 199 488 b 428 110 199 168 335 110 b 583 138 490 110 542 125 l 508 21 b 390 3 475 11 443 3 b 53 344 197 3 53 147 b 433 726 53 444 100 726 b 574 713 497 726 536 719 "},"d":{"ha":753,"x_min":0,"x_max":0,"o":"m 679 1047 b 654 825 668 999 654 942 l 654 121 b 679 0 654 88 654 74 l 517 0 l 517 121 b 304 0 464 63 408 0 b 31 308 164 0 31 122 b 418 711 31 517 214 711 b 517 696 463 711 488 704 l 517 825 b 486 1008 517 919 501 965 m 517 569 b 382 625 493 592 456 625 b 244 579 324 625 286 604 b 185 367 215 529 185 474 b 428 107 185 115 400 107 b 517 138 475 107 499 124 "},"e":{"ha":622,"x_min":0,"x_max":0,"o":"m 501 32 b 340 0 457 17 408 0 b 50 351 108 0 50 188 b 342 726 50 593 171 726 b 576 515 461 726 556 654 b 585 347 586 457 585 426 l 201 339 b 379 119 206 289 218 119 b 569 176 438 119 488 139 m 494 432 b 350 639 499 564 450 639 b 197 432 246 639 208 556 "},"f":{"ha":449,"x_min":0,"x_max":0,"o":"m 422 618 l 264 618 l 264 176 b 303 3 264 76 282 42 l 81 0 b 121 188 114 61 121 111 l 121 618 l 49 621 b 121 724 83 665 93 679 l 121 767 b 360 1051 121 843 121 1051 b 492 1033 413 1051 454 1042 b 464 878 478 964 474 944 b 358 949 447 913 421 949 b 264 806 264 949 264 849 l 264 714 l 422 714 "},"g":{"ha":681,"x_min":0,"x_max":0,"o":"m 669 596 l 539 596 b 581 458 557 561 581 518 b 300 250 581 333 474 250 b 221 256 267 250 244 253 b 189 192 200 228 189 208 b 203 154 189 182 193 163 b 329 144 213 144 299 144 b 553 124 489 144 515 144 b 621 1 596 100 621 51 b 493 -186 621 -93 539 -158 b 282 -225 429 -224 363 -225 l 138 -225 l 58 -179 b 33 -137 39 -168 33 -156 l 33 -79 b 181 39 128 -22 146 -1 b 33 125 107 53 33 67 b 124 208 33 153 60 178 b 199 260 156 222 176 240 b 46 458 110 285 46 356 b 329 735 46 690 238 735 b 472 693 406 735 438 715 l 669 693 m 367 326 b 447 458 399 349 447 382 b 299 654 447 546 388 654 b 183 507 235 654 183 603 b 336 325 183 411 235 321 m 203 36 b 171 -40 189 18 171 -4 b 294 -122 171 -61 182 -122 b 479 -29 351 -122 479 -114 b 363 40 479 36 413 40 "},"h":{"ha":753,"x_min":0,"x_max":0,"o":"m 281 1047 b 253 765 265 947 253 869 l 253 567 l 328 653 b 471 721 353 682 386 721 b 626 622 535 721 601 682 b 647 446 650 571 649 518 l 647 163 b 663 -1 647 90 647 71 l 493 -1 b 514 151 514 75 514 106 l 514 425 b 493 542 514 469 515 510 b 381 594 465 581 411 594 b 253 551 326 594 288 572 l 253 244 b 276 0 253 81 261 54 l 78 0 b 119 253 100 53 119 100 l 119 781 b 86 1010 119 893 111 933 "},"i":{"ha":361,"x_min":0,"x_max":0,"o":"m 279 729 b 244 547 261 694 244 664 l 244 201 b 286 0 244 69 267 32 l 63 0 b 106 210 94 49 106 67 l 106 546 b 68 729 106 639 96 672 m 175 1038 b 276 931 238 1038 276 979 b 178 826 276 890 247 826 b 79 933 124 826 79 868 b 175 1038 79 1006 133 1038 "},"j":{"ha":361,"x_min":0,"x_max":0,"o":"m 304 729 b 256 574 276 681 256 643 l 256 63 b 144 -224 256 -89 176 -185 l 17 -224 b 118 63 90 -135 118 -86 l 118 556 b 67 729 118 624 118 646 m 183 1035 b 286 932 239 1035 286 990 b 183 829 286 875 240 829 b 81 932 126 829 81 875 b 183 1035 81 990 126 1035 "},"k":{"ha":708,"x_min":0,"x_max":0,"o":"m 281 1057 b 253 825 264 989 253 918 l 253 396 l 435 633 b 476 729 472 682 474 703 l 686 729 b 518 556 583 636 572 626 l 408 414 l 536 199 b 686 0 593 103 642 44 l 463 0 b 414 129 457 40 454 63 l 253 394 l 253 165 b 281 0 253 117 258 43 l 81 0 b 117 199 111 57 117 101 l 117 857 b 90 1019 117 889 117 924 "},"l":{"ha":361,"x_min":0,"x_max":0,"o":"m 279 1049 b 254 813 261 957 254 874 l 254 215 b 299 0 254 113 261 83 l 63 0 b 115 165 78 28 115 97 l 117 847 b 86 1010 117 914 106 950 "},"m":{"ha":1114,"x_min":0,"x_max":0,"o":"m 251 729 l 251 569 b 314 669 261 585 303 656 b 451 732 365 732 443 732 b 626 569 589 732 618 608 b 682 671 635 585 672 657 b 822 732 728 728 792 732 b 979 642 928 732 969 661 b 999 531 999 606 999 567 l 999 108 b 1021 0 999 65 999 47 l 840 0 b 861 108 861 44 861 50 l 861 521 b 750 625 861 583 804 625 b 626 550 686 625 650 579 l 626 119 b 651 0 626 60 633 36 l 458 0 b 486 119 479 35 486 50 l 486 479 b 468 578 486 522 486 553 b 385 625 447 607 417 625 b 251 551 331 625 293 592 l 251 121 b 282 0 251 74 251 49 l 85 0 b 114 115 107 46 114 63 l 114 582 b 85 729 114 658 100 693 "},"n":{"ha":767,"x_min":0,"x_max":0,"o":"m 357 701 b 468 735 386 717 421 735 b 651 544 533 735 651 681 l 651 125 b 678 0 651 67 657 49 l 492 0 b 514 121 514 58 514 85 l 514 522 b 382 617 514 547 489 617 b 253 575 314 617 286 597 l 253 161 b 265 0 253 85 256 61 l 81 0 b 117 222 111 69 117 147 l 117 613 b 97 729 117 632 104 694 l 254 729 l 253 588 "},"o":{"ha":753,"x_min":0,"x_max":0,"o":"m 360 736 b 714 388 558 743 714 603 b 360 -11 714 71 449 -11 b 36 335 218 -11 36 82 b 360 736 36 638 240 700 m 457 93 b 583 358 506 132 583 201 b 361 638 583 506 490 638 b 185 393 267 638 185 546 b 457 93 185 185 324 82 "},"p":{"ha":753,"x_min":0,"x_max":0,"o":"m 264 729 b 258 581 260 663 258 639 b 463 733 317 664 368 733 b 715 390 600 733 715 608 b 450 25 715 142 568 25 b 258 114 360 25 288 89 l 258 -22 b 300 -221 258 -124 265 -156 l 76 -221 b 118 -39 107 -169 118 -147 l 118 508 b 76 729 118 649 96 692 m 258 161 b 371 132 288 147 321 132 b 569 389 451 132 569 181 b 386 618 569 588 435 618 b 258 567 326 618 288 589 "},"q":{"ha":753,"x_min":0,"x_max":0,"o":"m 461 -226 b 501 -49 488 -174 501 -144 l 501 151 l 408 53 b 286 17 349 26 326 17 b 47 315 183 17 47 97 b 510 738 47 576 224 738 b 657 728 571 738 618 732 b 639 564 638 649 639 629 l 639 -49 b 671 -226 639 -133 640 -144 m 501 626 b 400 640 471 633 439 640 b 197 372 297 640 197 557 b 390 146 197 265 242 146 b 501 164 433 146 465 154 "},"r":{"ha":564,"x_min":0,"x_max":0,"o":"m 267 728 b 260 628 260 690 260 675 l 260 539 b 472 724 303 622 353 724 b 539 706 503 724 517 717 l 515 531 b 404 583 478 565 458 583 b 260 519 328 583 288 546 l 260 171 b 296 0 260 65 271 42 l 83 0 b 119 139 113 46 119 69 l 119 601 b 96 728 119 628 119 658 "},"s":{"ha":478,"x_min":0,"x_max":0,"o":"m 438 581 b 303 644 407 607 367 644 b 197 547 238 644 197 599 b 321 410 197 492 226 472 b 446 208 396 360 446 310 b 208 -1 446 85 364 -1 b 33 25 190 -1 122 -1 l 43 213 b 203 78 110 117 144 78 b 310 176 278 78 310 131 b 194 313 310 239 271 264 b 56 522 147 343 56 406 b 299 726 56 603 125 726 b 438 696 356 726 386 715 "},"t":{"ha":463,"x_min":0,"x_max":0,"o":"m 444 711 l 444 619 l 260 619 l 260 358 b 267 157 260 194 260 176 b 358 97 275 132 313 97 b 453 113 382 97 403 101 l 374 11 b 254 -4 326 1 294 -4 b 115 115 144 -4 115 76 b 119 217 115 146 119 171 l 119 619 l 25 619 b 260 864 46 644 68 667 l 260 711 "},"u":{"ha":767,"x_min":0,"x_max":0,"o":"m 289 728 b 254 607 264 688 254 672 l 254 207 b 368 111 274 111 353 111 b 504 161 428 111 472 139 l 504 557 b 476 725 504 629 503 665 l 681 728 b 644 593 660 683 644 650 l 644 171 b 669 0 644 75 660 26 l 499 0 b 504 147 504 67 504 79 l 394 28 b 290 -1 374 17 333 -1 b 113 132 265 -1 171 10 l 115 543 b 78 728 117 646 101 682 "},"v":{"ha":651,"x_min":0,"x_max":0,"o":"m 232 729 b 225 676 226 696 225 690 b 250 567 225 660 231 638 l 346 217 l 446 556 b 472 729 449 565 476 656 l 625 729 b 540 549 604 700 571 654 l 379 0 l 264 0 l 147 428 b 90 601 138 456 100 578 b 18 729 65 665 43 696 "},"w":{"ha":940,"x_min":0,"x_max":0,"o":"m 235 729 b 226 665 231 710 226 692 b 238 565 226 619 233 585 l 304 258 l 444 729 l 558 729 l 678 254 l 760 579 b 774 671 767 607 774 635 b 765 729 774 694 771 707 l 925 729 b 849 558 865 625 861 613 l 707 0 l 601 0 l 474 510 l 326 0 l 221 0 l 100 553 b 25 729 82 635 60 674 "},"x":{"ha":651,"x_min":0,"x_max":0,"o":"m 222 729 b 258 624 226 699 229 679 l 331 488 l 396 601 b 443 729 431 661 439 682 l 618 729 b 513 590 589 700 560 671 l 396 390 l 536 140 b 636 0 572 76 590 53 l 443 0 b 389 129 436 44 410 92 l 318 256 l 254 146 b 203 0 226 99 207 54 l 6 0 b 151 181 39 35 99 93 l 258 358 l 122 597 b 31 729 92 650 67 688 "},"y":{"ha":767,"x_min":0,"x_max":0,"o":"m 238 729 b 268 617 243 690 253 653 l 411 269 b 539 729 538 615 539 638 l 756 729 b 588 369 707 660 683 626 l 493 115 b 351 -168 464 35 372 -153 l 271 -225 l 135 -225 l 225 -117 b 333 86 250 -86 279 -29 b 175 476 293 190 229 346 b 43 729 164 503 111 633 "},"z":{"ha":535,"x_min":0,"x_max":0,"o":"m 322 629 l 208 636 b 36 588 118 642 74 614 l 74 728 l 504 711 b 465 629 479 661 476 657 l 292 233 b 238 86 286 222 263 160 l 349 86 b 522 140 432 86 471 100 l 481 0 l 24 0 b 181 299 69 67 142 208 "},"{":{"ha":463,"x_min":0,"x_max":0,"o":"m 171 250 b 69 414 171 342 151 388 b 171 578 151 440 171 486 l 171 850 b 406 1053 171 1024 243 1053 l 406 1036 b 308 858 332 1014 308 958 l 308 600 b 201 415 308 497 293 440 l 201 413 b 308 228 293 388 308 331 l 308 -31 b 406 -208 308 -131 332 -186 l 406 -225 b 171 -22 243 -225 171 -196 "},"|":{"ha":753,"x_min":0,"x_max":0,"o":"m 319 1314 l 433 1314 l 433 -347 l 319 -347 "},"}":{"ha":463,"x_min":0,"x_max":0,"o":"m 292 -22 b 57 -225 292 -196 219 -225 l 57 -208 b 154 -31 131 -186 154 -131 l 154 228 b 261 413 154 331 169 388 l 261 415 b 154 600 169 440 154 497 l 154 858 b 57 1036 154 958 131 1014 l 57 1053 b 292 850 219 1053 292 1024 l 292 578 b 393 414 292 486 311 440 b 292 250 311 388 292 342 "},"~":{"ha":811,"x_min":0,"x_max":0,"o":"m 71 324 b 254 449 115 393 168 449 b 418 401 321 449 372 426 b 557 354 465 376 510 354 b 679 443 610 354 649 399 l 740 371 b 557 249 696 301 643 246 b 401 296 499 249 450 274 b 254 343 354 318 310 343 b 135 251 201 343 163 299 "},"¡":{"ha":304,"x_min":0,"x_max":0,"o":"m 18 -222 b 82 21 44 -187 82 -139 l 82 308 b 146 535 81 379 81 415 l 160 535 b 222 326 207 442 222 413 l 222 40 b 281 -222 222 -135 249 -174 m 154 828 b 265 717 215 828 265 779 b 154 607 265 657 215 607 b 44 717 94 607 44 657 b 154 828 44 779 94 828 "},"¢":{"ha":593,"x_min":0,"x_max":0,"o":"m 561 572 b 438 644 518 618 494 633 l 276 178 b 428 122 342 122 415 122 b 583 150 490 122 542 138 l 508 33 b 389 15 475 24 443 15 b 233 51 308 15 271 33 l 144 -208 l 44 -212 l 154 108 b 53 357 107 154 53 229 b 371 736 53 494 125 708 l 458 992 l 558 996 l 469 739 b 574 726 525 735 539 732 m 336 636 b 199 393 201 585 199 429 b 214 282 199 338 207 306 "},"£":{"ha":767,"x_min":0,"x_max":0,"o":"m 686 840 b 515 917 649 872 596 917 b 374 832 439 917 397 876 b 336 589 351 789 342 671 b 515 617 444 589 454 590 l 508 447 b 331 474 465 465 435 475 b 250 106 326 354 296 217 b 757 176 499 100 621 136 l 693 0 l 28 0 b 182 474 106 133 167 247 b 19 447 76 475 47 461 l 19 617 b 182 589 60 597 89 585 b 253 922 190 756 201 844 b 507 1049 336 1049 472 1049 b 693 1010 597 1049 653 1026 "},"⁄":{"ha":188,"x_min":0,"x_max":0,"o":"m 357 1051 l 450 1051 l -168 -29 l -262 -29 "},"¥":{"ha":868,"x_min":0,"x_max":0,"o":"m 844 1039 b 768 924 807 990 776 939 l 581 597 b 765 610 632 597 724 603 l 765 469 b 569 482 719 476 626 482 l 517 482 l 517 347 l 590 347 b 765 358 635 347 724 351 l 765 218 b 569 231 719 225 626 231 l 517 231 l 517 124 b 546 0 517 114 517 54 l 347 0 b 375 176 364 39 375 69 l 375 231 l 328 231 b 103 218 210 231 153 225 l 103 358 b 306 347 204 347 292 347 l 375 347 l 375 482 l 328 482 b 103 469 210 482 153 476 l 103 610 b 308 597 204 597 286 597 l 146 888 b 24 1039 94 979 68 1003 l 249 1042 b 294 888 242 979 268 935 l 450 604 l 603 881 b 656 1042 646 957 660 992 "},"ƒ":{"ha":796,"x_min":0,"x_max":0,"o":"m 610 569 l 451 569 l 344 60 b 46 -224 329 -15 286 -224 b -61 -207 1 -224 -25 -217 b -3 -50 -32 -137 -24 -118 b 72 -121 10 -89 33 -121 b 188 22 131 -121 167 -78 l 231 226 l 303 569 l 231 572 b 325 675 275 618 288 631 l 344 769 b 642 1053 360 844 403 1053 b 769 1036 693 1053 733 1044 b 711 879 740 967 732 947 b 628 951 694 921 675 951 b 501 808 569 951 521 904 l 472 665 l 631 665 "},"§":{"ha":550,"x_min":0,"x_max":0,"o":"m 467 835 b 317 926 436 869 385 926 b 201 808 254 926 201 874 b 361 643 201 724 267 690 b 519 453 453 596 519 551 b 458 333 519 396 500 354 l 353 281 b 508 68 426 240 508 194 b 235 -176 508 -94 350 -176 b 63 -132 221 -176 149 -176 l 63 72 b 250 -54 93 26 147 -54 b 360 54 307 -54 360 -10 b 228 190 360 128 299 157 b 42 403 53 274 42 351 b 106 525 42 457 60 488 l 192 586 b 33 789 146 611 33 669 b 333 1047 33 921 154 1047 b 467 1024 392 1047 432 1035 m 206 578 b 165 474 188 553 165 518 b 342 286 165 385 231 347 b 396 413 379 342 396 372 b 353 493 396 446 378 472 b 206 578 335 508 228 564 "},"¤":{"ha":956,"x_min":0,"x_max":0,"o":"m 478 626 b 294 432 372 626 294 535 b 478 240 294 329 372 240 b 664 432 586 240 664 329 b 478 626 664 535 586 626 m 232 261 b 181 432 200 307 181 365 b 232 603 181 499 203 563 l 96 739 l 174 814 l 307 678 b 478 732 350 710 411 732 b 649 678 547 732 608 710 l 785 814 l 860 739 l 724 603 b 778 432 756 560 778 499 b 724 261 778 365 756 304 l 860 125 l 785 50 l 649 186 b 478 135 608 157 544 135 b 307 186 411 135 350 154 l 174 50 l 96 125 "},"'":{"ha":261,"x_min":0,"x_max":0,"o":"m 61 885 l 61 1051 l 200 1051 l 200 885 l 168 699 l 92 699 "},"“":{"ha":622,"x_min":0,"x_max":0,"o":"m 288 721 b 453 1042 299 789 322 881 l 586 1042 b 485 811 550 993 485 903 b 504 721 485 778 492 756 m 8 721 b 175 1042 19 789 43 881 l 307 1042 b 206 811 271 993 206 903 b 225 721 206 778 213 756 "},"«":{"ha":681,"x_min":0,"x_max":0,"o":"m 329 707 l 203 411 l 329 115 l 176 115 l 31 411 l 176 707 m 654 707 l 526 411 l 657 115 l 503 115 l 354 411 l 503 707 "},"‹":{"ha":361,"x_min":0,"x_max":0,"o":"m 335 707 l 207 411 l 335 115 l 181 115 l 35 411 l 181 707 "},"›":{"ha":361,"x_min":0,"x_max":0,"o":"m 326 411 l 181 115 l 26 115 l 154 411 l 26 707 l 181 707 "},"–":{"ha":694,"x_min":0,"x_max":0,"o":"m 24 492 b 246 479 135 479 231 479 l 479 479 b 671 492 526 479 624 485 l 671 331 b 454 344 618 338 517 344 l 268 344 b 24 331 139 344 78 338 "},"†":{"ha":767,"x_min":0,"x_max":0,"o":"m 496 1042 b 461 799 465 947 461 839 l 461 672 l 557 672 b 754 692 654 672 697 679 l 754 518 b 578 538 683 536 603 538 l 461 538 l 461 24 b 493 -217 460 -46 460 -111 l 275 -217 b 308 75 308 -103 308 43 l 308 538 l 219 538 b 18 518 92 538 54 528 l 18 692 b 239 672 85 679 121 672 l 308 672 l 308 765 b 275 1042 308 888 300 968 "},"‡":{"ha":767,"x_min":0,"x_max":0,"o":"m 496 1042 b 461 794 468 957 461 914 l 461 708 l 568 708 b 753 729 668 708 721 721 l 753 553 b 568 575 692 569 635 575 l 461 575 l 461 254 l 557 254 b 753 276 649 254 679 260 l 753 99 b 579 118 719 108 660 118 l 461 118 l 461 24 b 496 -217 461 -97 475 -150 l 272 -217 b 307 35 307 -115 307 17 l 307 118 l 203 118 b 15 99 146 119 103 119 l 15 272 b 183 254 88 257 103 254 l 307 254 l 307 575 l 221 575 b 15 553 142 575 103 574 l 15 729 b 190 708 79 715 90 714 l 307 708 l 307 761 b 272 1042 307 794 307 917 "},"·":{"ha":333,"x_min":0,"x_max":0,"o":"m 168 638 b 279 526 229 638 279 589 b 168 415 279 465 229 415 b 57 526 107 415 57 465 b 168 638 57 589 107 638 "},"¶":{"ha":753,"x_min":0,"x_max":0,"o":"m 711 1044 l 711 1011 b 608 978 658 1006 619 1000 b 603 869 603 964 603 939 l 603 22 b 606 -81 603 -25 603 -64 b 711 -119 611 -108 658 -111 l 711 -153 l 489 -153 l 489 972 l 408 972 l 408 -153 l 186 -153 l 186 -119 b 292 -81 239 -111 286 -108 b 294 22 294 -58 294 -25 l 294 481 b 42 767 128 489 42 617 b 331 1044 42 914 150 1044 "},"•":{"ha":492,"x_min":0,"x_max":0,"o":"m 44 486 b 246 685 44 597 135 685 b 447 486 357 685 447 597 b 246 282 447 372 357 282 b 44 486 135 282 44 369 "},"‚":{"ha":333,"x_min":0,"x_max":0,"o":"m 329 207 b 164 -114 318 138 294 47 l 31 -114 b 132 115 67 -65 132 25 b 113 207 132 149 125 172 "},"„":{"ha":622,"x_min":0,"x_max":0,"o":"m 333 207 b 168 -114 324 138 300 47 l 36 -114 b 138 115 71 -65 138 25 b 118 207 138 149 131 172 m 613 207 b 447 -114 601 138 579 47 l 315 -114 b 417 115 350 -65 417 25 b 397 207 417 149 410 172 "},"”":{"ha":622,"x_min":0,"x_max":0,"o":"m 333 1042 b 168 721 324 972 300 882 l 36 721 b 138 950 71 769 138 860 b 118 1042 138 983 131 1007 m 613 1042 b 447 721 601 972 579 882 l 315 721 b 417 950 350 769 417 860 b 397 1042 417 983 410 1007 "},"»":{"ha":681,"x_min":0,"x_max":0,"o":"m 650 411 l 504 115 l 350 115 l 478 411 l 350 707 l 504 707 m 325 411 l 178 115 l 22 115 l 153 411 l 26 707 l 178 707 "},"…":{"ha":1389,"x_min":0,"x_max":0,"o":"m 232 214 b 343 103 292 214 343 164 b 232 -10 343 40 293 -10 b 119 103 169 -10 119 40 b 232 214 119 164 169 214 m 694 214 b 806 103 754 214 806 164 b 694 -10 806 40 756 -10 b 582 103 632 -10 582 40 b 694 214 582 164 632 214 m 1157 214 b 1268 103 1217 214 1268 164 b 1157 -10 1268 40 1218 -10 b 1044 103 1094 -10 1044 40 b 1157 214 1044 164 1094 214 "},"‰":{"ha":1779,"x_min":0,"x_max":0,"o":"m 888 399 b 774 236 833 399 774 357 b 889 83 774 143 818 83 b 1006 247 1006 83 1006 221 b 888 399 1006 349 949 399 m 889 506 b 1133 240 1032 506 1133 400 b 890 -26 1133 90 1040 -26 b 646 240 747 -26 646 89 b 889 506 646 392 743 506 m 897 1049 l 422 -26 l 331 -26 l 807 1049 m 333 1051 b 579 786 478 1051 579 946 b 335 519 579 636 486 519 b 90 786 192 519 90 635 b 333 1051 90 938 188 1051 m 333 944 b 218 782 278 944 218 903 b 333 629 218 689 264 629 b 451 793 451 629 451 767 b 333 944 451 894 394 944 m 1443 506 b 1689 240 1588 506 1689 400 b 1444 -26 1689 90 1596 -26 b 1200 240 1301 -26 1200 89 b 1443 506 1200 392 1297 506 m 1443 399 b 1328 236 1388 399 1328 357 b 1443 83 1328 143 1374 83 b 1561 247 1561 83 1561 221 b 1443 399 1561 349 1504 399 "},"¿":{"ha":593,"x_min":0,"x_max":0,"o":"m 565 -196 b 408 -226 525 -211 489 -226 b 54 94 164 -226 54 -61 b 279 414 54 317 217 386 b 453 535 414 472 424 481 l 468 535 b 475 403 471 508 475 458 b 424 332 475 358 457 343 b 210 100 343 307 210 265 b 413 -104 210 -29 313 -104 b 575 -42 492 -104 536 -69 m 449 836 b 560 726 510 836 560 788 b 450 617 560 667 511 617 b 339 726 388 617 339 668 b 449 836 339 788 388 836 "},"`":{"ha":463,"x_min":0,"x_max":0,"o":"m 263 806 b 101 1038 161 882 117 989 l 235 1038 b 306 806 242 963 261 894 "},"´":{"ha":463,"x_min":0,"x_max":0,"o":"m 361 1038 b 200 806 346 989 301 882 l 157 806 b 228 1038 201 894 221 963 "},"ˆ":{"ha":463,"x_min":0,"x_max":0,"o":"m 319 1042 b 411 804 332 942 383 849 l 361 804 b 231 956 299 861 269 894 b 103 804 194 900 171 871 l 53 804 b 143 1042 76 842 121 908 "},"˜":{"ha":463,"x_min":0,"x_max":0,"o":"m 486 1011 b 324 828 482 881 385 828 b 208 871 293 828 258 838 b 121 901 163 903 135 901 b 64 829 71 901 58 865 l -24 829 b 139 1013 -19 960 78 1013 b 254 969 169 1013 204 1003 b 342 939 300 938 328 939 b 399 1011 392 939 404 975 "},"¯":{"ha":463,"x_min":0,"x_max":0,"o":"m 3 957 l 461 957 l 461 832 l 3 832 "},"˘":{"ha":463,"x_min":0,"x_max":0,"o":"m 40 1046 b 229 924 71 942 164 924 b 419 1046 268 924 392 928 l 461 1046 b 231 799 454 917 381 799 b 3 1046 83 799 10 911 "},"˙":{"ha":463,"x_min":0,"x_max":0,"o":"m 319 1008 b 256 832 311 931 275 863 l 143 832 b 189 1008 165 885 186 942 "},"¨":{"ha":463,"x_min":0,"x_max":0,"o":"m 179 1008 b 115 832 171 931 135 863 l 3 832 b 49 1008 25 885 46 942 m 460 1008 b 397 832 453 931 415 863 l 283 832 b 331 1008 307 885 328 942 "},"˚":{"ha":463,"x_min":0,"x_max":0,"o":"m 232 1026 b 338 919 289 1026 338 981 b 232 814 338 861 289 814 b 125 919 174 814 125 861 b 232 1026 125 981 175 1026 m 232 978 b 175 921 201 978 175 953 b 232 864 175 889 200 864 b 288 921 263 864 288 890 b 232 978 288 951 263 978 "},"¸":{"ha":463,"x_min":0,"x_max":0,"o":"m 129 -153 b 192 -165 153 -160 168 -165 b 256 -114 239 -165 256 -137 b 200 -64 256 -75 217 -64 b 147 -76 182 -64 167 -69 l 154 -12 b 229 1 176 -6 200 1 b 349 -112 313 1 349 -58 b 197 -231 349 -179 292 -231 b 94 -210 151 -231 122 -219 "},"˝":{"ha":463,"x_min":0,"x_max":0,"o":"m 257 1038 b 96 806 242 989 197 882 l 53 806 b 124 1038 97 894 117 963 m 467 1038 b 306 806 451 989 407 882 l 263 806 b 333 1038 307 894 326 963 "},"˛":{"ha":463,"x_min":0,"x_max":0,"o":"m 297 11 b 244 -111 279 -14 244 -62 b 288 -168 244 -143 261 -168 b 329 -149 306 -168 315 -160 l 356 -208 b 276 -232 331 -221 310 -232 b 151 -118 215 -232 151 -190 b 222 13 151 -69 182 -28 "},"ˇ":{"ha":463,"x_min":0,"x_max":0,"o":"m 101 1042 b 231 890 171 975 194 946 b 361 1042 269 951 299 985 l 411 1042 b 319 804 383 997 332 904 l 143 804 b 53 1042 121 938 76 1004 "},"—":{"ha":1389,"x_min":0,"x_max":0,"o":"m 25 492 b 247 479 136 479 232 479 l 1172 479 b 1364 492 1221 479 1317 485 l 1364 331 b 1147 344 1311 338 1210 344 l 269 344 b 25 331 140 344 79 338 "},"Æ":{"ha":1288,"x_min":0,"x_max":0,"o":"m 1213 1042 l 1144 879 b 846 944 1054 924 989 942 l 846 585 l 1157 585 l 1078 418 b 893 460 1042 438 1003 460 l 846 460 l 846 100 b 1264 189 1039 121 1118 138 l 1176 0 l 651 0 b 690 256 668 61 690 139 l 690 460 l 454 460 l 371 307 b 282 0 319 211 276 108 l 18 0 b 158 213 93 104 146 192 l 640 1042 m 690 585 l 690 900 l 521 585 "},"ª":{"ha":406,"x_min":0,"x_max":0,"o":"m 243 614 l 243 667 l 179 618 b 140 614 174 618 154 614 b 13 718 90 614 13 650 b 97 824 13 767 58 803 b 243 888 119 835 224 876 l 243 910 b 229 954 243 933 242 943 b 154 981 213 969 183 981 b 54 944 124 981 101 971 l 83 1035 l 149 1049 b 190 1051 164 1051 185 1051 b 329 990 278 1051 318 1007 b 344 924 344 965 344 953 l 347 675 b 367 614 353 651 357 642 m 243 803 l 139 803 b 124 743 131 782 124 767 b 203 683 124 693 164 683 b 243 689 222 683 232 686 "},"Ł":{"ha":694,"x_min":0,"x_max":0,"o":"m 485 740 l 485 604 l 288 464 l 285 106 b 686 196 471 122 574 151 l 600 0 l 90 0 b 132 335 117 67 132 107 l 132 356 l 38 288 l 38 426 l 132 493 l 132 794 b 96 1040 132 944 113 994 l 331 1040 b 289 785 308 986 290 939 l 288 603 "},"Ø":{"ha":1172,"x_min":0,"x_max":0,"o":"m 178 -1 l 94 75 l 185 174 b 49 525 92 278 49 413 b 619 1050 49 785 274 1050 b 917 967 786 1050 883 988 l 997 1051 l 1081 975 l 1003 892 b 1138 525 1101 782 1138 643 b 593 -7 1138 200 889 -7 b 268 97 493 -7 378 15 m 372 210 b 636 106 450 140 547 106 b 976 486 869 106 976 325 b 886 765 976 583 938 693 m 808 849 b 568 939 729 915 639 939 b 224 546 375 939 224 779 b 297 296 224 465 249 371 "},"Œ":{"ha":1331,"x_min":0,"x_max":0,"o":"m 1197 885 b 893 943 1121 921 1035 950 l 893 589 l 1206 589 l 1146 451 b 893 488 1076 479 1026 490 l 893 101 b 1304 176 1057 97 1122 106 l 1235 0 l 738 0 b 625 -4 721 0 672 -3 b 514 -10 578 -7 531 -10 b 226 60 381 -10 299 13 b 25 469 160 103 25 215 b 575 1054 25 806 260 1054 b 686 1049 593 1054 639 1051 b 794 1042 732 1044 779 1042 l 1249 1042 m 738 906 b 514 940 674 922 604 940 b 183 539 314 940 183 774 b 519 97 183 288 322 97 b 738 131 596 97 661 113 "},"º":{"ha":478,"x_min":0,"x_max":0,"o":"m 226 1051 b 464 842 365 1056 464 968 b 229 601 464 656 293 601 b 14 811 135 601 14 658 b 226 1051 14 992 149 1029 m 288 672 b 364 825 314 692 364 732 b 231 985 364 910 306 985 b 125 844 171 985 125 929 b 288 672 125 724 211 667 "},"æ":{"ha":983,"x_min":0,"x_max":0,"o":"m 146 697 b 296 726 189 711 238 726 b 492 647 321 726 422 726 b 688 728 544 697 615 728 b 901 590 761 728 856 690 b 929 349 931 526 929 436 l 538 338 b 576 186 540 293 544 238 b 733 103 618 119 690 103 b 901 149 808 103 858 128 l 847 35 b 686 1 807 18 765 1 b 438 129 517 1 465 85 l 281 10 b 222 1 251 3 239 1 b 39 167 136 1 39 68 b 189 356 39 274 153 339 b 404 458 326 417 342 424 b 367 581 404 528 404 550 b 244 621 338 606 285 621 b 110 578 186 621 136 593 m 838 432 b 693 639 838 493 839 639 b 540 432 546 639 542 490 m 404 322 l 211 322 b 188 214 199 293 188 263 b 319 104 188 161 203 104 b 404 114 354 104 381 110 "},"ı":{"ha":361,"x_min":0,"x_max":0,"o":"m 279 729 b 244 547 261 694 244 664 l 244 201 b 286 0 244 69 267 32 l 63 0 b 106 210 94 50 106 67 l 106 547 b 68 729 106 639 96 672 "},"ł":{"ha":361,"x_min":0,"x_max":0,"o":"m 318 600 l 254 532 l 254 215 b 299 0 254 113 261 83 l 63 0 b 117 165 78 28 117 97 l 117 381 l 53 313 l 53 449 l 117 517 l 117 847 b 86 1010 117 914 106 950 l 279 1049 b 254 813 263 957 254 874 l 254 668 l 318 736 "},"ø":{"ha":767,"x_min":0,"x_max":0,"o":"m 108 0 l 39 63 l 100 129 b 44 336 79 161 44 221 b 192 663 44 432 68 572 b 392 738 229 689 339 738 b 593 668 501 738 569 686 l 653 733 l 722 668 l 660 600 b 722 389 694 551 722 489 b 368 -10 722 72 457 -10 b 164 60 304 -10 232 6 m 268 174 b 465 94 288 153 351 85 b 592 360 515 133 592 204 b 564 496 592 432 569 481 m 510 576 b 369 639 490 597 446 639 b 193 394 272 639 193 544 b 217 257 193 346 200 299 "},"œ":{"ha":1172,"x_min":0,"x_max":0,"o":"m 1044 32 b 869 -3 1001 17 949 -3 b 625 125 706 -3 654 78 b 367 -3 547 40 446 -3 b 39 335 179 -3 39 136 b 188 664 39 532 125 618 b 383 736 226 692 321 736 b 644 608 485 736 572 696 b 874 735 699 685 771 735 b 1122 504 896 735 1094 735 b 1126 350 1131 435 1128 379 l 728 343 b 931 99 736 271 754 99 b 1101 149 1013 99 1067 129 m 1038 435 b 1028 540 1039 499 1035 521 b 886 647 1000 628 931 647 b 729 435 749 647 736 504 m 457 99 b 588 360 542 157 588 256 b 363 638 588 486 497 638 b 188 400 279 638 188 563 b 457 99 188 238 279 100 "},"ß":{"ha":753,"x_min":0,"x_max":0,"o":"m 321 622 b 506 794 481 656 506 742 b 363 949 506 876 444 949 b 256 758 278 949 257 871 l 256 250 b 293 1 256 119 258 88 l 74 1 b 118 217 115 82 118 101 l 118 703 b 376 1049 117 842 115 1049 b 664 832 594 1049 664 903 b 517 619 664 731 589 663 b 708 342 568 603 708 556 b 415 -4 708 197 613 -4 b 367 1 397 -4 385 -3 l 325 110 b 408 99 354 103 378 99 b 553 283 536 99 553 219 b 321 531 553 513 361 531 l 271 528 "},"¬":{"ha":926,"x_min":0,"x_max":0,"o":"m 700 435 l 114 435 l 114 549 l 814 549 l 814 150 l 700 150 "},"µ":{"ha":767,"x_min":0,"x_max":0,"o":"m 400 29 b 311 0 378 18 347 0 b 260 13 292 0 272 4 l 260 -89 b 299 -224 260 -146 278 -179 l 92 -222 b 119 -53 118 -161 119 -126 l 119 544 b 82 728 119 647 103 685 l 294 728 b 260 607 269 688 260 672 l 260 207 b 374 111 279 111 358 111 b 510 161 433 111 478 139 l 510 557 b 482 725 510 629 508 665 l 686 728 b 650 593 665 683 650 650 l 650 171 b 675 0 650 75 665 26 l 504 0 b 510 147 510 67 510 71 "},"™":{"ha":1389,"x_min":0,"x_max":0,"o":"m 343 583 b 413 514 343 524 342 521 l 413 483 l 154 483 l 154 514 b 225 583 226 521 225 524 l 225 1013 l 158 1013 b 67 922 103 1013 78 971 l 36 922 l 36 1044 l 531 1044 l 531 922 l 500 922 b 410 1013 489 971 465 1013 l 343 1013 m 729 894 l 726 894 l 726 608 b 799 514 726 542 733 519 l 799 483 l 615 483 l 615 514 b 686 608 679 519 686 542 l 686 943 b 589 1014 668 986 631 1014 l 589 1044 l 774 1044 l 976 633 l 1190 1044 l 1349 1044 l 1349 1014 b 1272 943 1285 1011 1272 989 l 1272 583 b 1342 514 1272 524 1271 521 l 1342 483 l 1085 483 l 1085 514 b 1154 583 1156 521 1154 524 l 1154 896 l 1151 896 l 944 482 l 928 482 "},"Ð":{"ha":882,"x_min":0,"x_max":0,"o":"m 13 594 b 113 588 50 590 86 588 l 113 757 b 71 1038 113 901 83 989 b 179 1043 107 1040 133 1043 b 760 822 371 1043 601 1025 b 864 511 836 724 864 613 b 322 0 864 240 657 0 l 71 0 b 113 317 93 65 113 125 l 113 472 b 13 463 74 469 42 467 m 494 463 b 311 476 443 469 358 476 l 268 476 l 268 342 b 276 101 268 224 268 185 b 681 525 586 132 681 361 b 276 946 681 671 607 900 b 268 756 268 882 268 807 l 268 583 l 325 583 b 494 594 375 583 447 588 "},"½":{"ha":1229,"x_min":0,"x_max":0,"o":"m 286 1051 l 311 1051 l 311 589 b 331 506 311 539 322 521 l 174 506 b 203 619 186 526 203 551 l 203 951 l 143 951 m 744 388 b 926 546 735 481 818 546 b 1103 410 1040 546 1103 472 b 1006 232 1103 378 1092 335 l 871 71 l 994 71 b 1129 129 1039 71 1067 71 l 1115 -4 b 988 0 1069 -1 1025 0 b 903 1 950 1 921 1 b 696 -4 874 1 782 0 l 696 6 b 946 303 753 69 924 274 b 999 406 983 351 999 378 b 918 472 999 460 943 472 b 833 394 874 472 833 443 b 849 331 833 376 836 363 m 822 1051 l 917 1051 l 296 -29 l 203 -29 "},"±":{"ha":926,"x_min":0,"x_max":0,"o":"m 407 736 l 521 736 l 521 497 l 814 497 l 814 383 l 521 383 l 521 144 l 407 144 l 407 383 l 114 383 l 114 497 l 407 497 m 114 64 l 814 64 l 814 -50 l 114 -50 "},"Þ":{"ha":738,"x_min":0,"x_max":0,"o":"m 131 763 b 90 1042 131 947 107 1003 l 328 1042 b 288 829 303 968 292 907 l 375 829 b 726 538 585 829 726 714 b 400 249 726 321 540 249 l 288 249 b 326 0 292 175 310 68 l 83 0 b 131 340 103 72 131 168 m 286 299 l 344 303 b 563 528 435 310 563 358 b 496 700 563 586 543 651 b 286 761 457 739 401 761 "},"¼":{"ha":1229,"x_min":0,"x_max":0,"o":"m 1029 544 l 1029 263 l 1053 263 b 1135 282 1099 263 1110 268 l 1135 178 b 1029 196 1094 194 1085 196 l 1029 131 b 1053 0 1033 72 1035 47 l 901 0 b 924 136 911 26 924 68 l 924 196 l 671 196 l 671 260 b 761 347 714 293 754 339 l 928 544 m 926 263 l 926 428 l 788 263 m 286 1051 l 311 1051 l 311 588 b 331 506 311 539 322 519 l 174 506 b 203 618 186 525 203 551 l 203 951 l 143 951 m 808 1051 l 901 1051 l 282 -31 l 189 -31 "},"÷":{"ha":926,"x_min":0,"x_max":0,"o":"m 114 294 l 114 408 l 814 408 l 814 294 m 364 639 b 464 739 364 694 411 739 b 564 639 518 739 564 693 b 465 539 564 589 518 539 b 364 639 411 539 364 585 m 364 64 b 464 164 364 119 411 164 b 564 64 518 164 564 118 b 465 -36 564 14 518 -36 b 364 64 411 -36 364 10 "},"¦":{"ha":753,"x_min":0,"x_max":0,"o":"m 319 243 l 433 243 l 433 -243 l 319 -243 m 319 938 l 433 938 l 433 451 l 319 451 "},"°":{"ha":550,"x_min":0,"x_max":0,"o":"m 276 1053 b 482 847 390 1053 482 961 b 276 639 482 731 390 639 b 68 847 160 639 68 731 b 276 1053 68 961 160 1053 m 276 994 b 135 847 196 994 135 925 b 276 697 135 767 196 697 b 415 847 354 697 415 767 b 276 994 415 925 354 994 "},"þ":{"ha":753,"x_min":0,"x_max":0,"o":"m 76 -221 b 118 -39 107 -169 118 -147 l 118 508 l 118 847 b 88 1010 118 914 107 950 l 283 1049 b 258 813 265 957 258 874 l 258 581 b 463 733 317 664 368 733 b 715 390 600 733 715 608 b 450 25 715 142 568 25 b 258 114 360 25 288 89 l 258 -22 b 300 -221 258 -124 265 -156 m 258 161 b 371 132 288 147 321 132 b 569 389 451 132 569 181 b 386 618 569 588 435 618 b 258 567 326 618 288 589 "},"¾":{"ha":1229,"x_min":0,"x_max":0,"o":"m 1071 546 l 1071 263 l 1094 263 b 1176 282 1140 263 1151 268 l 1176 178 b 1071 196 1136 194 1126 196 l 1071 131 b 1094 0 1075 72 1076 47 l 943 0 b 965 136 953 26 965 68 l 965 196 l 714 196 l 714 260 b 803 347 756 293 796 339 l 969 546 m 968 263 l 968 429 l 829 263 m 540 1047 l 540 1035 b 381 806 499 976 404 844 b 494 668 494 767 494 682 b 289 501 494 610 443 501 b 99 560 260 501 176 503 l 186 667 b 297 567 204 574 272 567 b 399 657 367 567 399 617 b 336 743 399 697 367 731 b 236 758 306 756 282 757 l 324 874 b 389 975 339 894 369 944 b 300 981 371 978 351 981 b 115 917 174 981 156 961 l 118 1047 m 892 1053 l 985 1053 l 367 -31 l 274 -31 "},"®":{"ha":1083,"x_min":0,"x_max":0,"o":"m 294 815 l 576 815 b 750 672 669 815 750 769 b 629 515 750 599 701 538 l 718 390 b 825 264 754 340 796 290 l 825 249 l 713 249 b 538 497 664 249 622 368 l 478 497 l 478 342 b 547 274 478 283 475 281 l 547 249 l 294 249 l 294 274 b 364 342 365 281 364 283 l 364 719 b 294 790 364 781 365 783 m 478 529 l 535 529 b 631 665 604 529 631 592 b 535 783 631 753 590 783 l 478 783 m 1063 521 b 543 -8 1063 225 836 -8 b 21 521 250 -8 21 225 b 543 1053 21 817 250 1053 b 1063 521 836 1053 1063 817 m 121 521 b 543 67 121 275 306 67 b 963 521 778 67 963 275 b 543 978 963 767 781 978 b 121 521 306 978 121 767 "},"−":{"ha":926,"x_min":0,"x_max":0,"o":"m 114 294 l 114 408 l 814 408 l 814 294 "},"ð":{"ha":753,"x_min":0,"x_max":0,"o":"m 458 94 b 585 360 508 133 585 204 b 363 636 585 506 492 636 b 185 393 268 636 185 546 b 458 94 185 185 325 83 m 144 844 l 328 917 b 147 1003 271 961 210 992 l 314 1050 b 443 961 342 1036 399 996 l 593 1021 l 669 961 l 510 900 b 717 432 603 806 717 643 b 361 -10 717 42 415 -10 b 36 335 219 -10 36 83 b 361 735 36 636 240 699 b 529 689 425 736 481 726 b 397 856 494 747 450 807 l 221 786 "},"×":{"ha":926,"x_min":0,"x_max":0,"o":"m 138 600 l 215 678 l 463 429 l 713 678 l 790 600 l 540 351 l 790 103 l 713 25 l 463 275 l 215 25 l 138 103 l 386 351 "},"©":{"ha":1083,"x_min":0,"x_max":0,"o":"m 1063 521 b 543 -8 1063 225 836 -8 b 21 521 250 -8 21 225 b 543 1053 21 817 250 1053 b 1063 521 836 1053 1063 817 m 121 521 b 543 67 121 275 306 67 b 963 521 778 67 963 275 b 543 978 963 767 781 978 b 121 521 306 978 121 767 m 775 289 b 731 260 772 272 757 268 b 572 231 704 251 643 231 b 250 535 388 231 250 328 b 585 832 250 664 343 832 b 739 806 660 832 700 819 b 772 772 763 796 772 785 l 772 664 l 743 664 b 581 793 731 729 686 793 b 385 544 458 793 388 693 b 588 268 385 386 443 268 b 765 397 678 268 736 325 l 799 397 "},"Á":{"ha":1100,"x_min":0,"x_max":0,"o":"m 929 285 b 1092 3 1004 122 1053 56 l 844 0 b 801 183 844 46 839 99 l 740 324 l 375 324 l 322 211 b 269 0 304 172 264 82 l 15 0 b 167 249 50 40 81 78 l 568 1046 l 576 1046 m 433 446 l 686 446 l 565 725 m 728 1290 b 531 1090 681 1174 588 1115 l 467 1090 b 576 1290 554 1197 568 1256 "},"Â":{"ha":1100,"x_min":0,"x_max":0,"o":"m 929 285 b 1092 3 1004 122 1053 56 l 844 0 b 801 183 844 46 839 99 l 740 324 l 375 324 l 322 211 b 269 0 304 172 264 82 l 15 0 b 167 249 50 40 81 78 l 568 1046 l 576 1046 m 433 446 l 686 446 l 565 725 m 667 1290 b 783 1089 681 1249 714 1161 l 714 1089 b 576 1210 690 1104 621 1150 b 440 1089 547 1172 514 1140 l 367 1089 b 485 1290 428 1160 456 1207 "},"Ä":{"ha":1100,"x_min":0,"x_max":0,"o":"m 929 285 b 1092 3 1004 122 1053 56 l 844 0 b 801 183 844 46 839 99 l 740 324 l 375 324 l 322 211 b 269 0 304 172 264 82 l 15 0 b 167 249 50 40 81 78 l 568 1046 l 576 1046 m 433 446 l 686 446 l 565 725 m 532 1268 b 456 1092 524 1221 514 1168 l 326 1092 b 379 1268 350 1142 372 1206 m 889 1268 b 813 1092 881 1221 871 1168 l 685 1092 b 736 1268 708 1142 732 1206 "},"À":{"ha":1100,"x_min":0,"x_max":0,"o":"m 929 285 b 1092 3 1004 122 1053 56 l 844 0 b 801 183 844 46 839 99 l 740 324 l 375 324 l 322 211 b 269 0 304 172 264 82 l 15 0 b 167 249 50 40 81 78 l 568 1046 l 576 1046 m 433 446 l 686 446 l 565 725 m 592 1092 b 394 1290 535 1117 442 1175 l 546 1290 b 656 1092 554 1256 568 1199 "},"Å":{"ha":1100,"x_min":0,"x_max":0,"o":"m 928 285 b 1090 3 1004 122 1051 56 l 843 0 b 801 183 843 46 838 99 l 739 324 l 375 324 l 322 211 b 269 0 304 172 264 82 l 15 0 b 167 249 50 40 81 78 l 535 981 b 421 1126 464 1000 421 1061 b 574 1279 421 1211 489 1279 b 725 1125 657 1279 725 1208 b 606 979 725 1058 679 996 m 433 446 l 686 446 l 565 725 m 572 1207 b 492 1126 528 1207 492 1172 b 572 1044 492 1081 528 1044 b 653 1126 617 1044 653 1081 b 572 1207 653 1171 617 1207 "},"Ã":{"ha":1100,"x_min":0,"x_max":0,"o":"m 929 285 b 1092 3 1004 122 1053 56 l 844 0 b 801 183 844 46 839 99 l 740 324 l 375 324 l 322 211 b 269 0 304 172 264 82 l 15 0 b 167 249 50 40 81 78 l 568 1046 l 576 1046 m 433 446 l 686 446 l 565 725 m 899 1272 b 708 1090 892 1111 747 1090 b 579 1121 657 1090 597 1114 b 454 1158 490 1156 483 1158 b 382 1108 407 1158 382 1132 l 385 1090 l 289 1090 b 471 1274 296 1206 386 1274 b 586 1242 501 1274 524 1268 b 733 1203 678 1203 714 1203 b 806 1272 751 1203 811 1204 "},"Ç":{"ha":911,"x_min":0,"x_max":0,"o":"m 875 844 b 604 919 814 876 728 919 b 210 515 372 919 210 747 b 593 119 210 303 349 119 b 900 232 753 119 843 189 l 892 71 b 550 -8 818 35 726 -11 b 671 -117 667 -15 671 -103 b 511 -228 671 -176 622 -228 b 408 -215 469 -228 436 -221 l 431 -156 b 503 -162 467 -161 482 -162 b 571 -115 544 -162 571 -140 b 500 -67 571 -86 536 -67 l 460 -71 l 465 -12 b 538 -8 486 -10 506 -7 b 44 499 150 10 44 324 b 651 1051 44 778 279 1051 b 875 1011 760 1051 824 1029 "},"É":{"ha":708,"x_min":0,"x_max":0,"o":"m 638 1042 l 558 881 b 271 943 442 933 381 947 l 271 579 l 597 579 l 508 433 b 271 479 389 468 350 474 l 271 99 b 699 174 404 99 478 99 l 622 0 l 76 0 b 115 268 94 61 115 135 l 115 778 b 76 1042 115 849 106 951 m 532 1290 b 335 1090 485 1174 392 1115 l 271 1090 b 381 1290 358 1197 372 1256 "},"Ê":{"ha":708,"x_min":0,"x_max":0,"o":"m 638 1042 l 558 881 b 271 943 442 933 381 947 l 271 579 l 597 579 l 508 433 b 271 479 389 468 350 474 l 271 99 b 699 174 404 99 478 99 l 622 0 l 76 0 b 115 268 94 61 115 135 l 115 778 b 76 1042 115 849 106 951 m 457 1290 b 574 1089 471 1249 504 1161 l 504 1089 b 367 1210 481 1104 411 1150 b 231 1089 338 1172 304 1140 l 157 1089 b 275 1290 218 1160 246 1207 "},"Ë":{"ha":708,"x_min":0,"x_max":0,"o":"m 638 1042 l 558 881 b 271 943 442 933 381 947 l 271 579 l 597 579 l 508 433 b 271 479 389 468 350 474 l 271 99 b 699 174 404 99 478 99 l 622 0 l 76 0 b 115 268 94 61 115 135 l 115 778 b 76 1042 115 849 106 951 m 289 1268 b 213 1092 281 1221 271 1168 l 83 1092 b 136 1268 107 1142 129 1206 m 646 1268 b 569 1092 638 1221 628 1168 l 442 1092 b 493 1268 465 1142 489 1206 "},"È":{"ha":708,"x_min":0,"x_max":0,"o":"m 638 1042 l 558 881 b 271 943 442 933 381 947 l 271 579 l 597 579 l 508 433 b 271 479 389 468 350 474 l 271 99 b 699 174 404 99 478 99 l 622 0 l 76 0 b 115 268 94 61 115 135 l 115 778 b 76 1042 115 849 106 951 m 397 1092 b 200 1290 340 1117 247 1175 l 351 1290 b 461 1092 360 1256 374 1199 "},"Í":{"ha":390,"x_min":0,"x_max":0,"o":"m 317 1042 b 278 767 297 981 278 924 l 278 288 b 317 0 278 169 286 110 l 82 0 b 122 299 103 65 122 125 l 122 794 b 82 1042 122 913 108 978 m 374 1290 b 176 1090 326 1174 233 1115 l 113 1090 b 222 1290 200 1197 214 1256 "},"Î":{"ha":390,"x_min":0,"x_max":0,"o":"m 317 1042 b 278 767 297 981 278 924 l 278 288 b 317 0 278 169 286 110 l 82 0 b 122 299 103 65 122 125 l 122 794 b 82 1042 122 913 108 978 m 297 1290 b 414 1089 311 1249 344 1161 l 344 1089 b 207 1210 321 1104 251 1150 b 71 1089 178 1172 144 1140 l -3 1089 b 115 1290 58 1160 86 1207 "},"Ï":{"ha":390,"x_min":0,"x_max":0,"o":"m 317 1042 b 278 767 297 981 278 924 l 278 288 b 317 0 278 169 286 110 l 82 0 b 122 299 103 65 122 125 l 122 794 b 82 1042 122 913 108 978 m 131 1268 b 54 1092 122 1221 113 1168 l -75 1092 b -22 1268 -51 1142 -29 1206 m 488 1268 b 411 1092 479 1221 469 1168 l 283 1092 b 335 1268 307 1142 331 1206 "},"Ì":{"ha":390,"x_min":0,"x_max":0,"o":"m 317 1042 b 278 767 297 981 278 924 l 278 288 b 317 0 278 169 286 110 l 82 0 b 122 299 103 65 122 125 l 122 794 b 82 1042 122 913 108 978 m 239 1092 b 42 1290 182 1117 89 1175 l 193 1290 b 303 1092 201 1256 215 1199 "},"Ñ":{"ha":1100,"x_min":0,"x_max":0,"o":"m 261 1042 b 372 865 281 994 290 969 l 843 268 l 843 742 b 814 1042 843 933 831 982 l 1014 1042 b 988 819 1000 986 988 931 l 988 260 b 1022 0 988 99 1007 43 l 829 0 b 740 150 811 56 776 104 l 297 717 l 297 306 b 339 0 297 214 307 85 l 118 0 b 153 275 151 108 153 256 l 153 901 b 13 1042 103 965 75 992 m 865 1272 b 675 1090 858 1111 714 1090 b 546 1121 624 1090 564 1114 b 421 1158 457 1156 450 1158 b 349 1108 374 1158 349 1132 l 351 1090 l 256 1090 b 438 1274 263 1206 353 1274 b 553 1242 468 1274 490 1268 b 700 1203 644 1203 681 1203 b 772 1272 718 1203 778 1204 "},"Ó":{"ha":1172,"x_min":0,"x_max":0,"o":"m 49 532 b 619 1050 49 764 257 1050 b 1138 525 964 1050 1138 789 b 593 -7 1138 200 888 -7 b 49 532 257 -7 49 265 m 224 556 b 636 106 224 274 438 106 b 976 486 868 106 976 324 b 568 939 976 703 811 939 b 224 556 358 939 224 757 m 761 1290 b 564 1090 714 1174 621 1115 l 500 1090 b 610 1290 588 1197 601 1256 "},"Ô":{"ha":1172,"x_min":0,"x_max":0,"o":"m 49 532 b 619 1050 49 764 257 1050 b 1138 525 964 1050 1138 789 b 593 -7 1138 200 888 -7 b 49 532 257 -7 49 265 m 224 556 b 636 106 224 274 438 106 b 976 486 868 106 976 324 b 568 939 976 703 811 939 b 224 556 358 939 224 757 m 688 1290 b 804 1089 701 1249 735 1161 l 735 1089 b 597 1210 711 1104 642 1150 b 461 1089 568 1172 535 1140 l 388 1089 b 506 1290 449 1160 476 1207 "},"Ö":{"ha":1172,"x_min":0,"x_max":0,"o":"m 49 532 b 619 1050 49 764 257 1050 b 1138 525 964 1050 1138 789 b 593 -7 1138 200 888 -7 b 49 532 257 -7 49 265 m 224 556 b 636 106 224 274 438 106 b 976 486 868 106 976 324 b 568 939 976 703 811 939 b 224 556 358 939 224 757 m 519 1268 b 443 1092 511 1221 501 1168 l 314 1092 b 367 1268 338 1142 360 1206 m 876 1268 b 800 1092 868 1221 858 1168 l 672 1092 b 724 1268 696 1142 719 1206 "},"Ò":{"ha":1172,"x_min":0,"x_max":0,"o":"m 49 532 b 619 1050 49 764 257 1050 b 1138 525 964 1050 1138 789 b 593 -7 1138 200 888 -7 b 49 532 257 -7 49 265 m 224 556 b 636 106 224 274 438 106 b 976 486 868 106 976 324 b 568 939 976 703 811 939 b 224 556 358 939 224 757 m 628 1092 b 431 1290 571 1117 478 1175 l 582 1290 b 692 1092 590 1256 604 1199 "},"Õ":{"ha":1172,"x_min":0,"x_max":0,"o":"m 49 532 b 619 1050 49 764 257 1050 b 1138 525 964 1050 1138 789 b 593 -7 1138 200 888 -7 b 49 532 257 -7 49 265 m 224 556 b 636 106 224 274 438 106 b 976 486 868 106 976 324 b 568 939 976 703 811 939 b 224 556 358 939 224 757 m 901 1272 b 711 1090 894 1111 750 1090 b 582 1121 660 1090 600 1114 b 457 1158 493 1156 486 1158 b 385 1108 410 1158 385 1132 l 388 1090 l 292 1090 b 474 1274 299 1206 389 1274 b 589 1242 504 1274 526 1268 b 736 1203 681 1203 717 1203 b 808 1272 754 1203 814 1204 "},"Š":{"ha":622,"x_min":0,"x_max":0,"o":"m 554 842 b 357 924 508 878 450 924 b 196 783 267 924 196 865 b 414 558 196 685 283 633 b 606 290 564 472 606 390 b 253 -7 606 118 471 -7 b 74 21 171 -7 122 7 l 74 242 b 278 115 121 188 182 115 b 433 261 368 115 433 188 b 346 399 433 333 376 379 b 35 751 124 538 35 593 b 343 1053 35 917 172 1053 b 554 1003 438 1053 504 1024 m 186 1290 b 322 1169 260 1240 293 1207 b 460 1290 367 1231 436 1275 l 529 1290 b 413 1089 460 1218 426 1131 l 231 1089 b 113 1290 201 1174 174 1219 "},"Ú":{"ha":1042,"x_min":0,"x_max":0,"o":"m 293 1042 b 260 792 269 974 260 936 l 260 413 b 281 269 260 347 265 308 b 519 106 332 143 453 106 b 758 288 632 106 729 190 b 767 392 764 308 767 326 l 767 803 b 729 1042 767 850 767 963 l 951 1042 b 924 829 935 997 924 965 l 924 274 b 951 0 924 201 924 140 l 767 0 b 774 103 774 60 775 72 b 443 -10 713 65 592 -10 b 104 392 228 -10 104 154 l 104 803 b 71 1042 104 961 89 997 m 699 1290 b 501 1090 651 1174 558 1115 l 438 1090 b 547 1290 525 1197 539 1256 "},"Û":{"ha":1042,"x_min":0,"x_max":0,"o":"m 293 1042 b 260 792 269 974 260 936 l 260 413 b 281 269 260 347 265 308 b 519 106 332 143 453 106 b 758 288 632 106 729 190 b 767 392 764 308 767 326 l 767 803 b 729 1042 767 850 767 963 l 951 1042 b 924 829 935 997 924 965 l 924 274 b 951 0 924 201 924 140 l 767 0 b 774 103 774 60 775 72 b 443 -10 713 65 592 -10 b 104 392 228 -10 104 154 l 104 803 b 71 1042 104 961 89 997 m 622 1290 b 739 1089 636 1249 669 1161 l 669 1089 b 532 1210 646 1104 576 1150 b 396 1089 503 1172 469 1140 l 322 1089 b 440 1290 383 1160 411 1207 "},"Ü":{"ha":1042,"x_min":0,"x_max":0,"o":"m 293 1042 b 260 792 269 974 260 936 l 260 413 b 281 269 260 347 265 308 b 519 106 332 143 453 106 b 758 288 632 106 729 190 b 767 392 764 308 767 326 l 767 803 b 729 1042 767 850 767 963 l 951 1042 b 924 829 935 997 924 965 l 924 274 b 951 0 924 201 924 140 l 767 0 b 774 103 774 60 775 72 b 443 -10 713 65 592 -10 b 104 392 228 -10 104 154 l 104 803 b 71 1042 104 961 89 997 m 454 1268 b 378 1092 446 1221 436 1168 l 249 1092 b 301 1268 272 1142 294 1206 m 811 1268 b 735 1092 803 1221 793 1168 l 607 1092 b 658 1268 631 1142 654 1206 "},"Ù":{"ha":1042,"x_min":0,"x_max":0,"o":"m 293 1042 b 260 792 269 974 260 936 l 260 413 b 281 269 260 347 265 308 b 519 106 332 143 453 106 b 758 288 632 106 729 190 b 767 392 764 308 767 326 l 767 803 b 729 1042 767 850 767 963 l 951 1042 b 924 829 935 997 924 965 l 924 274 b 951 0 924 201 924 140 l 767 0 b 774 103 774 60 775 72 b 443 -10 713 65 592 -10 b 104 392 228 -10 104 154 l 104 803 b 71 1042 104 961 89 997 m 563 1092 b 365 1290 506 1117 413 1175 l 517 1290 b 626 1092 525 1256 539 1199 "},"Ý":{"ha":868,"x_min":0,"x_max":0,"o":"m 271 1042 b 317 888 265 981 290 935 l 463 631 l 604 882 b 658 1042 649 957 661 992 l 868 1040 b 790 924 829 990 800 939 l 540 485 l 540 124 b 568 0 540 114 540 54 l 357 0 b 385 178 372 39 385 68 l 385 472 l 151 888 b 33 1039 101 979 79 1004 m 613 1290 b 415 1090 565 1174 472 1115 l 351 1090 b 461 1290 439 1197 453 1256 "},"Ÿ":{"ha":868,"x_min":0,"x_max":0,"o":"m 271 1042 b 317 888 265 981 290 935 l 463 631 l 604 882 b 658 1042 649 957 661 992 l 868 1040 b 790 924 829 990 800 939 l 540 485 l 540 124 b 568 0 540 114 540 54 l 357 0 b 385 178 372 39 385 68 l 385 472 l 151 888 b 33 1039 101 979 79 1004 m 421 1268 b 344 1092 413 1221 403 1168 l 215 1092 b 268 1268 239 1142 261 1206 m 778 1268 b 701 1092 769 1221 760 1168 l 574 1092 b 625 1268 597 1142 621 1206 "},"Ž":{"ha":796,"x_min":0,"x_max":0,"o":"m 726 1042 l 604 799 l 278 108 b 361 104 303 106 325 104 b 783 190 619 104 719 157 l 708 0 l 24 0 b 492 931 181 286 342 606 b 397 936 475 933 429 936 b 38 847 222 936 106 881 l 104 1042 m 275 1290 b 411 1169 349 1240 382 1207 b 549 1290 456 1231 525 1275 l 618 1290 b 501 1089 549 1218 515 1131 l 319 1089 b 201 1290 290 1174 263 1219 "},"á":{"ha":636,"x_min":0,"x_max":0,"o":"m 143 700 l 235 719 b 299 725 260 725 289 725 b 506 622 433 725 490 649 b 526 517 526 585 526 565 l 532 101 b 558 0 532 85 544 43 l 394 0 l 394 101 b 275 7 342 63 326 50 b 217 0 267 6 239 0 b 33 168 160 0 33 50 b 289 401 33 293 194 364 b 394 454 358 428 365 433 l 394 492 b 386 550 394 528 392 539 b 242 619 367 586 308 619 b 104 572 188 619 149 599 m 394 318 l 208 318 b 182 208 193 282 182 251 b 319 101 182 128 247 101 b 394 114 353 101 371 107 m 450 1038 b 289 806 435 989 390 882 l 246 806 b 317 1038 290 894 310 963 "},"â":{"ha":636,"x_min":0,"x_max":0,"o":"m 143 700 l 235 719 b 299 725 260 725 289 725 b 506 622 433 725 490 649 b 526 517 526 585 526 565 l 532 101 b 558 0 532 85 544 43 l 394 0 l 394 101 b 275 7 342 63 326 50 b 217 0 267 6 239 0 b 33 168 160 0 33 50 b 289 401 33 293 194 364 b 394 454 358 428 365 433 l 394 492 b 386 550 394 528 392 539 b 242 619 367 586 308 619 b 104 572 188 619 149 599 m 394 318 l 208 318 b 182 208 193 282 182 251 b 319 101 182 128 247 101 b 394 114 353 101 371 107 m 424 1042 b 515 804 436 942 488 849 l 465 804 b 335 956 403 861 374 894 b 207 804 299 900 275 871 l 157 804 b 247 1042 181 842 225 908 "},"ä":{"ha":636,"x_min":0,"x_max":0,"o":"m 143 700 l 235 719 b 299 725 260 725 289 725 b 506 622 433 725 490 649 b 526 517 526 585 526 565 l 532 101 b 558 0 532 85 544 43 l 394 0 l 394 101 b 275 7 342 63 326 50 b 217 0 267 6 239 0 b 33 168 160 0 33 50 b 289 401 33 293 194 364 b 394 454 358 428 365 433 l 394 492 b 386 550 394 528 392 539 b 242 619 367 586 308 619 b 104 572 188 619 149 599 m 394 318 l 208 318 b 182 208 193 282 182 251 b 319 101 182 128 247 101 b 394 114 353 101 371 107 m 268 1008 b 204 832 260 931 224 863 l 92 832 b 138 1008 114 885 135 942 m 549 1008 b 486 832 542 931 504 863 l 372 832 b 419 1008 396 885 417 942 "},"à":{"ha":636,"x_min":0,"x_max":0,"o":"m 143 700 l 235 719 b 299 725 260 725 289 725 b 506 622 433 725 490 649 b 526 517 526 585 526 565 l 532 101 b 558 0 532 85 544 43 l 394 0 l 394 101 b 275 7 342 63 326 50 b 217 0 267 6 239 0 b 33 168 160 0 33 50 b 289 401 33 293 194 364 b 394 454 358 428 365 433 l 394 492 b 386 550 394 528 392 539 b 242 619 367 586 308 619 b 104 572 188 619 149 599 m 394 318 l 208 318 b 182 208 193 282 182 251 b 319 101 182 128 247 101 b 394 114 353 101 371 107 m 350 806 b 189 1038 249 882 204 989 l 322 1038 b 393 806 329 963 349 894 "},"å":{"ha":636,"x_min":0,"x_max":0,"o":"m 143 700 l 235 719 b 299 725 260 725 289 725 b 506 622 433 725 490 649 b 526 517 526 585 526 565 l 532 101 b 558 0 532 85 544 43 l 394 0 l 394 101 b 275 7 342 63 326 50 b 217 0 267 6 239 0 b 33 168 160 0 33 50 b 289 401 33 293 194 364 b 394 454 358 428 365 433 l 394 492 b 386 550 394 528 392 539 b 242 619 367 586 308 619 b 104 572 188 619 149 599 m 394 318 l 208 318 b 182 208 193 282 182 251 b 319 101 182 128 247 101 b 394 114 353 101 371 107 m 319 1026 b 425 919 376 1026 425 981 b 319 814 425 861 376 814 b 213 919 261 814 213 861 b 319 1026 213 981 263 1026 m 319 978 b 263 921 289 978 263 953 b 319 864 263 889 288 864 b 375 921 350 864 375 890 b 319 978 375 951 350 978 "},"ã":{"ha":636,"x_min":0,"x_max":0,"o":"m 143 700 l 235 719 b 299 725 260 725 289 725 b 506 622 433 725 490 649 b 526 517 526 585 526 565 l 532 101 b 558 0 532 85 544 43 l 394 0 l 394 101 b 275 7 342 63 326 50 b 217 0 267 6 239 0 b 33 168 160 0 33 50 b 289 401 33 293 194 364 b 394 454 358 428 365 433 l 394 492 b 386 550 394 528 392 539 b 242 619 367 586 308 619 b 104 572 188 619 149 599 m 394 318 l 208 318 b 182 208 193 282 182 251 b 319 101 182 128 247 101 b 394 114 353 101 371 107 m 590 1011 b 428 828 586 881 489 828 b 313 871 397 828 363 838 b 225 901 267 903 239 901 b 168 829 175 901 163 865 l 81 829 b 243 1013 85 960 182 1013 b 358 969 274 1013 308 1003 b 446 939 404 938 432 939 b 503 1011 496 939 508 975 "},"ç":{"ha":593,"x_min":0,"x_max":0,"o":"m 508 21 b 390 3 475 11 443 3 l 390 1 b 489 -107 464 -8 489 -61 b 347 -226 489 -179 424 -226 b 246 -200 311 -226 276 -217 l 283 -146 b 343 -161 303 -154 319 -161 b 399 -108 376 -161 399 -137 b 353 -62 399 -76 368 -62 b 297 -78 343 -62 338 -64 l 297 -12 b 363 3 314 -7 319 -7 l 363 4 b 53 344 185 17 53 156 b 433 726 53 444 100 726 b 574 713 497 726 536 719 l 561 560 b 406 633 529 593 490 633 b 199 381 244 633 199 488 b 428 110 199 168 335 110 b 583 138 490 110 542 125 "},"é":{"ha":622,"x_min":0,"x_max":0,"o":"m 501 32 b 340 0 457 17 408 0 b 50 351 108 0 50 188 b 342 726 50 593 171 726 b 576 515 461 726 556 654 b 585 347 586 457 585 426 l 201 339 b 379 119 206 289 218 119 b 569 176 438 119 488 139 m 494 432 b 350 639 499 564 450 639 b 197 432 246 639 208 556 m 442 1038 b 281 806 426 989 382 882 l 238 806 b 308 1038 282 894 301 963 "},"ê":{"ha":622,"x_min":0,"x_max":0,"o":"m 501 32 b 340 0 457 17 408 0 b 50 351 108 0 50 188 b 342 726 50 593 171 726 b 576 515 461 726 556 654 b 585 347 586 457 585 426 l 201 339 b 379 119 206 289 218 119 b 569 176 438 119 488 139 m 494 432 b 350 639 499 564 450 639 b 197 432 246 639 208 556 m 424 1042 b 515 804 436 942 488 849 l 465 804 b 335 956 403 861 374 894 b 207 804 299 900 275 871 l 157 804 b 247 1042 181 842 225 908 "},"ë":{"ha":622,"x_min":0,"x_max":0,"o":"m 501 32 b 340 0 457 17 408 0 b 50 351 108 0 50 188 b 342 726 50 593 171 726 b 576 515 461 726 556 654 b 585 347 586 457 585 426 l 201 339 b 379 119 206 289 218 119 b 569 176 438 119 488 139 m 494 432 b 350 639 499 564 450 639 b 197 432 246 639 208 556 m 294 1008 b 231 832 286 931 250 863 l 118 832 b 164 1008 140 885 161 942 m 575 1008 b 513 832 568 931 531 863 l 399 832 b 446 1008 422 885 443 942 "},"è":{"ha":622,"x_min":0,"x_max":0,"o":"m 501 32 b 340 0 457 17 408 0 b 50 351 108 0 50 188 b 342 726 50 593 171 726 b 576 515 461 726 556 654 b 585 347 586 457 585 426 l 201 339 b 379 119 206 289 218 119 b 569 176 438 119 488 139 m 494 432 b 350 639 499 564 450 639 b 197 432 246 639 208 556 m 340 806 b 179 1038 239 882 194 989 l 313 1038 b 383 806 319 963 339 894 "},"í":{"ha":361,"x_min":0,"x_max":0,"o":"m 279 729 b 244 547 261 694 244 664 l 244 201 b 286 0 244 69 267 32 l 63 0 b 106 210 94 50 106 67 l 106 547 b 68 729 106 639 96 672 m 311 1038 b 150 806 296 989 251 882 l 107 806 b 178 1038 151 894 171 963 "},"î":{"ha":361,"x_min":0,"x_max":0,"o":"m 279 729 b 244 547 261 694 244 664 l 244 201 b 286 0 244 69 267 32 l 63 0 b 106 210 94 50 106 67 l 106 547 b 68 729 106 639 96 672 m 267 1042 b 358 804 279 942 331 849 l 308 804 b 178 956 246 861 217 894 b 50 804 142 900 118 871 l 0 804 b 90 1042 24 842 68 908 "},"ï":{"ha":361,"x_min":0,"x_max":0,"o":"m 279 729 b 244 547 261 694 244 664 l 244 201 b 286 0 244 69 267 32 l 63 0 b 106 210 94 50 106 67 l 106 547 b 68 729 106 639 96 672 m 129 1008 b 65 832 121 931 85 863 l -47 832 b -1 1008 -25 885 -4 942 m 410 1008 b 347 832 403 931 365 863 l 233 832 b 281 1008 257 885 278 942 "},"ì":{"ha":361,"x_min":0,"x_max":0,"o":"m 279 729 b 244 547 261 694 244 664 l 244 201 b 286 0 244 69 267 32 l 63 0 b 106 210 94 50 106 67 l 106 547 b 68 729 106 639 96 672 m 210 806 b 49 1038 108 882 64 989 l 182 1038 b 253 806 189 963 208 894 "},"ñ":{"ha":767,"x_min":0,"x_max":0,"o":"m 357 701 b 468 735 386 717 421 735 b 651 544 533 735 651 681 l 651 125 b 678 0 651 67 657 49 l 492 0 b 514 121 514 58 514 85 l 514 522 b 382 617 514 547 489 617 b 253 575 314 617 286 597 l 253 161 b 265 0 253 85 256 61 l 81 0 b 117 222 111 69 117 147 l 117 613 b 97 729 117 632 104 694 l 254 729 l 253 588 m 639 1011 b 476 828 635 881 538 828 b 361 871 446 828 411 838 b 274 901 315 903 288 901 b 217 829 224 901 211 865 l 129 829 b 292 1013 133 960 231 1013 b 407 969 322 1013 357 1003 b 494 939 453 938 481 939 b 551 1011 544 939 557 975 "},"ó":{"ha":753,"x_min":0,"x_max":0,"o":"m 360 736 b 714 388 558 743 714 603 b 360 -11 714 71 449 -11 b 36 335 218 -11 36 82 b 360 736 36 638 240 700 m 457 93 b 583 358 506 132 583 201 b 361 638 583 506 490 638 b 185 393 267 638 185 546 b 457 93 185 185 324 82 m 507 1038 b 346 806 492 989 447 882 l 303 806 b 374 1038 347 894 367 963 "},"ô":{"ha":753,"x_min":0,"x_max":0,"o":"m 360 736 b 714 388 558 743 714 603 b 360 -11 714 71 449 -11 b 36 335 218 -11 36 82 b 360 736 36 638 240 700 m 457 93 b 583 358 506 132 583 201 b 361 638 583 506 490 638 b 185 393 267 638 185 546 b 457 93 185 185 324 82 m 464 1042 b 556 804 476 942 528 849 l 506 804 b 375 956 443 861 414 894 b 247 804 339 900 315 871 l 197 804 b 288 1042 221 842 265 908 "},"ö":{"ha":753,"x_min":0,"x_max":0,"o":"m 360 736 b 714 388 558 743 714 603 b 360 -11 714 71 449 -11 b 36 335 218 -11 36 82 b 360 736 36 638 240 700 m 457 93 b 583 358 506 132 583 201 b 361 638 583 506 490 638 b 185 393 267 638 185 546 b 457 93 185 185 324 82 m 326 1008 b 263 832 318 931 282 863 l 150 832 b 196 1008 172 885 193 942 m 607 1008 b 544 832 600 931 563 863 l 431 832 b 478 1008 454 885 475 942 "},"ò":{"ha":753,"x_min":0,"x_max":0,"o":"m 360 736 b 714 388 558 743 714 603 b 360 -11 714 71 449 -11 b 36 335 218 -11 36 82 b 360 736 36 638 240 700 m 457 93 b 583 358 506 132 583 201 b 361 638 583 506 490 638 b 185 393 267 638 185 546 b 457 93 185 185 324 82 m 407 806 b 246 1038 306 882 261 989 l 379 1038 b 450 806 386 963 406 894 "},"õ":{"ha":753,"x_min":0,"x_max":0,"o":"m 360 736 b 714 388 558 743 714 603 b 360 -11 714 71 449 -11 b 36 335 218 -11 36 82 b 360 736 36 638 240 700 m 457 93 b 583 358 506 132 583 201 b 361 638 583 506 490 638 b 185 393 267 638 185 546 b 457 93 185 185 324 82 m 632 1011 b 469 828 628 881 531 828 b 354 871 439 828 404 838 b 267 901 308 903 281 901 b 210 829 217 901 204 865 l 122 829 b 285 1013 126 960 224 1013 b 400 969 315 1013 350 1003 b 488 939 446 938 474 939 b 544 1011 538 939 550 975 "},"š":{"ha":478,"x_min":0,"x_max":0,"o":"m 438 581 b 303 644 407 607 367 644 b 197 547 238 644 197 599 b 321 410 197 492 226 472 b 446 208 396 360 446 310 b 208 -1 446 85 364 -1 b 33 25 190 -1 122 -1 l 43 213 b 203 78 110 117 144 78 b 310 176 278 78 310 131 b 194 313 310 239 271 264 b 56 522 147 343 56 406 b 299 726 56 603 125 726 b 438 696 356 726 386 715 m 126 1042 b 256 890 196 975 219 946 b 386 1042 294 951 324 985 l 436 1042 b 344 804 408 997 357 904 l 168 804 b 78 1042 146 938 101 1004 "},"ú":{"ha":767,"x_min":0,"x_max":0,"o":"m 289 728 b 254 607 264 688 254 672 l 254 207 b 368 111 274 111 353 111 b 504 161 428 111 472 139 l 504 557 b 476 725 504 629 503 665 l 681 728 b 644 593 660 683 644 650 l 644 171 b 669 0 644 75 660 26 l 499 0 b 504 147 504 67 504 79 l 394 28 b 290 -1 374 17 333 -1 b 113 132 265 -1 171 10 l 115 543 b 78 728 117 646 101 682 m 515 1038 b 354 806 500 989 456 882 l 311 806 b 382 1038 356 894 375 963 "},"û":{"ha":767,"x_min":0,"x_max":0,"o":"m 289 728 b 254 607 264 688 254 672 l 254 207 b 368 111 274 111 353 111 b 504 161 428 111 472 139 l 504 557 b 476 725 504 629 503 665 l 681 728 b 644 593 660 683 644 650 l 644 171 b 669 0 644 75 660 26 l 499 0 b 504 147 504 67 504 79 l 394 28 b 290 -1 374 17 333 -1 b 113 132 265 -1 171 10 l 115 543 b 78 728 117 646 101 682 m 472 1042 b 564 804 485 942 536 849 l 514 804 b 383 956 451 861 422 894 b 256 804 347 900 324 871 l 206 804 b 296 1042 229 842 274 908 "},"ü":{"ha":767,"x_min":0,"x_max":0,"o":"m 289 728 b 254 607 264 688 254 672 l 254 207 b 368 111 274 111 353 111 b 504 161 428 111 472 139 l 504 557 b 476 725 504 629 503 665 l 681 728 b 644 593 660 683 644 650 l 644 171 b 669 0 644 75 660 26 l 499 0 b 504 147 504 67 504 79 l 394 28 b 290 -1 374 17 333 -1 b 113 132 265 -1 171 10 l 115 543 b 78 728 117 646 101 682 m 333 1008 b 269 832 325 931 289 863 l 157 832 b 203 1008 179 885 200 942 m 614 1008 b 551 832 607 931 569 863 l 438 832 b 485 1008 461 885 482 942 "},"ù":{"ha":767,"x_min":0,"x_max":0,"o":"m 289 728 b 254 607 264 688 254 672 l 254 207 b 368 111 274 111 353 111 b 504 161 428 111 472 139 l 504 557 b 476 725 504 629 503 665 l 681 728 b 644 593 660 683 644 650 l 644 171 b 669 0 644 75 660 26 l 499 0 b 504 147 504 67 504 79 l 394 28 b 290 -1 374 17 333 -1 b 113 132 265 -1 171 10 l 115 543 b 78 728 117 646 101 682 m 414 806 b 253 1038 313 882 268 989 l 386 1038 b 457 806 393 963 413 894 "},"ý":{"ha":767,"x_min":0,"x_max":0,"o":"m 238 729 b 268 617 243 690 253 653 l 411 269 b 539 729 538 615 539 638 l 756 729 b 588 369 707 660 683 626 l 493 115 b 351 -168 464 35 372 -153 l 271 -225 l 135 -225 l 225 -117 b 333 86 250 -86 279 -29 b 175 476 293 190 229 346 b 43 729 164 503 111 633 m 515 1038 b 354 806 500 989 456 882 l 311 806 b 382 1038 356 894 375 963 "},"ÿ":{"ha":767,"x_min":0,"x_max":0,"o":"m 238 729 b 268 617 243 690 253 653 l 411 269 b 539 729 538 615 539 638 l 756 729 b 588 369 707 660 683 626 l 493 115 b 351 -168 464 35 372 -153 l 271 -225 l 135 -225 l 225 -117 b 333 86 250 -86 279 -29 b 175 476 293 190 229 346 b 43 729 164 503 111 633 m 360 1008 b 296 832 351 931 315 863 l 183 832 b 229 1008 206 885 226 942 m 640 1008 b 578 832 633 931 596 863 l 464 832 b 511 1008 488 885 508 942 "},"ž":{"ha":535,"x_min":0,"x_max":0,"o":"m 322 629 l 208 636 b 36 588 118 642 74 614 l 74 728 l 504 711 b 465 629 479 661 476 657 l 292 233 b 238 86 286 222 263 160 l 349 86 b 522 140 432 86 471 100 l 481 0 l 24 0 b 181 299 69 67 142 208 m 136 1042 b 265 890 206 975 229 946 b 396 1042 304 951 333 985 l 446 1042 b 354 804 418 997 367 904 l 178 804 b 88 1042 156 938 111 1004 "},"Ω":{"ha":1079,"x_min":0,"x_max":0,"o":"m 992 0 l 639 0 l 628 29 b 815 560 692 153 817 349 b 538 983 814 872 679 983 b 263 553 385 983 263 871 b 447 29 263 349 369 169 l 435 0 l 85 0 l 50 217 l 88 218 b 203 107 119 124 143 107 l 356 107 b 106 564 260 188 106 328 b 542 1029 106 849 296 1029 b 971 575 792 1029 971 858 b 717 107 971 365 828 214 l 878 107 b 989 218 939 107 957 119 l 1029 217 "},"μ":{"ha":767,"x_min":0,"x_max":0,"o":"m 400 29 b 311 0 378 18 347 0 b 260 13 292 0 272 4 l 260 -89 b 299 -224 260 -146 278 -179 l 92 -222 b 119 -53 118 -161 119 -126 l 119 544 b 82 728 119 647 103 685 l 294 728 b 260 607 269 688 260 672 l 260 207 b 374 111 279 111 358 111 b 510 161 433 111 478 139 l 510 557 b 482 725 510 629 508 665 l 686 728 b 650 593 665 683 650 650 l 650 171 b 675 0 650 75 665 26 l 504 0 b 510 147 510 67 510 71 "},"π":{"ha":840,"x_min":0,"x_max":0,"o":"m 799 686 b 746 549 788 629 764 575 b 646 542 721 543 686 542 b 639 206 638 450 639 308 b 703 72 639 117 658 72 b 775 114 732 72 750 88 l 794 82 b 639 -18 757 17 694 -18 b 504 172 561 -18 504 22 b 519 546 504 308 513 429 b 294 549 435 546 354 549 l 294 522 b 197 8 294 185 219 35 b 107 -18 169 -4 132 -15 l 97 8 b 236 550 207 146 236 400 b 46 485 139 551 101 525 l 24 519 b 276 656 68 572 124 656 b 674 650 386 654 532 650 b 761 700 719 650 738 658 "},"€":{"ha":850,"x_min":0,"x_max":0,"o":"m 263 568 b 258 515 261 554 258 531 l 258 482 l 686 482 l 657 382 l 272 382 b 558 129 300 201 447 129 b 806 242 688 129 760 199 l 799 71 b 536 -8 744 38 668 -8 b 118 382 271 -8 150 203 l 31 382 l 49 482 l 107 482 l 107 499 b 113 568 107 519 111 547 l 28 568 l 50 668 l 133 668 b 604 1050 188 878 349 1050 b 786 1011 692 1050 744 1029 l 786 846 b 567 921 736 878 667 921 b 279 668 425 921 318 817 l 738 668 l 710 568 "},"ℓ":{"ha":614,"x_min":0,"x_max":0,"o":"m 588 171 b 339 1 531 63 449 1 b 186 61 267 1 218 24 b 135 275 153 103 135 151 l 135 393 l 47 328 l 28 365 l 135 449 l 135 640 b 213 1029 135 876 149 956 b 346 1103 251 1081 297 1103 b 483 907 439 1103 483 1013 b 265 474 483 733 392 601 l 265 342 b 396 89 265 146 311 89 b 558 197 465 89 518 139 m 265 544 b 403 904 344 639 403 771 b 336 1057 403 992 382 1057 b 265 726 282 1057 265 972 "},"℮":{"ha":1268,"x_min":0,"x_max":0,"o":"m 271 511 b 264 504 267 511 264 510 l 264 218 b 276 186 264 206 268 196 b 633 31 368 92 494 31 b 1010 204 785 31 918 99 l 1094 204 b 632 0 990 82 821 0 b 49 525 310 0 49 236 b 632 1050 49 815 310 1050 b 1217 525 956 1050 1217 815 l 1217 511 m 1003 836 b 989 871 1003 849 997 861 b 633 1019 897 960 772 1019 b 278 865 496 1019 369 958 b 264 829 268 856 264 843 l 264 549 b 271 539 264 544 267 539 l 996 539 b 1003 549 1001 539 1003 544 "},"∂":{"ha":789,"x_min":0,"x_max":0,"o":"m 392 654 b 588 553 458 654 539 624 b 600 711 593 601 599 656 b 563 943 603 785 593 867 b 372 1078 533 1010 463 1078 b 167 992 293 1078 219 1035 b 121 1089 143 989 107 1054 b 329 1150 171 1121 240 1150 b 639 940 472 1150 569 1071 b 713 597 699 828 713 686 b 642 228 713 485 694 338 b 336 1 579 94 479 1 b 64 299 172 1 64 115 b 151 544 64 401 104 489 b 389 654 206 608 294 654 m 422 594 b 265 508 364 594 311 574 b 199 231 221 438 199 332 b 336 50 199 129 250 50 b 503 204 414 50 469 129 b 575 490 543 293 560 371 b 424 594 557 529 499 594 "},"∏":{"ha":1019,"x_min":0,"x_max":0,"o":"m 978 979 b 843 871 851 969 843 958 l 843 36 b 975 -86 843 -64 854 -76 l 975 -126 l 586 -126 l 586 -86 b 707 35 700 -78 707 -71 l 707 919 b 654 968 707 963 699 968 l 361 968 b 313 925 318 968 313 963 l 313 35 b 422 -86 313 -62 311 -76 l 422 -126 l 43 -126 l 43 -86 b 175 35 163 -76 175 -67 l 175 871 b 39 979 175 960 165 969 l 39 1019 l 978 1019 "},"∑":{"ha":821,"x_min":0,"x_max":0,"o":"m 721 -132 l 42 -132 l 42 -96 l 371 407 l 49 981 l 49 1019 l 721 1019 b 739 778 722 992 732 874 l 697 769 b 649 921 685 839 668 888 b 493 969 628 957 604 969 l 219 969 l 490 497 l 160 -14 l 536 -14 b 744 163 665 -14 683 -6 l 786 151 "},"∙":{"ha":333,"x_min":0,"x_max":0,"o":"m 168 638 b 279 526 229 638 279 589 b 168 415 279 465 229 415 b 57 526 107 415 57 465 b 168 638 57 589 107 638 "},"√":{"ha":815,"x_min":0,"x_max":0,"o":"m 543 -221 l 511 -237 l 192 569 l 64 508 l 46 557 l 283 668 l 525 31 l 529 31 l 732 1313 l 792 1299 "},"∞":{"ha":1113,"x_min":0,"x_max":0,"o":"m 1040 419 b 817 182 1040 272 932 182 b 557 349 731 182 656 228 b 290 182 482 260 406 182 b 69 414 172 182 69 278 b 300 650 69 551 168 650 b 563 485 407 650 488 576 b 825 650 629 560 701 650 b 1040 421 950 649 1040 557 m 303 265 b 511 410 388 265 454 346 b 293 568 450 489 392 568 b 157 411 208 568 157 499 b 300 265 157 331 217 265 m 815 568 b 606 418 724 568 653 469 b 821 265 696 311 746 265 b 954 414 906 265 954 344 b 817 568 954 507 897 568 "},"∫":{"ha":558,"x_min":0,"x_max":0,"o":"m 208 615 b 439 1238 183 1128 315 1238 b 531 1167 478 1238 531 1214 b 463 1099 531 1121 497 1099 b 385 1171 414 1099 418 1171 b 326 929 354 1171 318 1128 l 354 369 b 121 -293 379 -158 256 -293 b 28 -221 67 -293 28 -260 b 107 -149 26 -179 67 -149 b 181 -226 149 -149 149 -226 b 238 15 225 -226 244 -131 "},"≈":{"ha":796,"x_min":0,"x_max":0,"o":"m 735 588 b 544 446 692 508 629 446 b 381 504 486 446 446 467 b 253 551 339 529 300 551 b 115 447 189 551 150 503 l 57 497 b 263 638 100 581 176 638 b 417 583 331 638 379 604 b 546 532 468 553 499 532 b 678 638 601 532 639 572 m 735 333 b 543 192 693 254 629 192 b 381 250 485 192 444 213 b 254 299 338 276 299 299 b 115 193 188 299 150 247 l 57 242 b 261 383 100 326 176 383 b 417 329 332 383 379 350 b 546 278 463 304 496 278 b 678 383 603 278 636 317 "},"≠":{"ha":796,"x_min":0,"x_max":0,"o":"m 515 600 l 724 600 l 724 513 l 481 513 l 390 311 l 724 311 l 724 224 l 356 224 l 282 58 l 213 89 l 274 224 l 71 224 l 71 311 l 308 311 l 397 513 l 71 513 l 71 600 l 432 600 l 506 763 l 575 732 "},"≤":{"ha":796,"x_min":0,"x_max":0,"o":"m 78 468 l 78 561 l 719 882 l 719 779 l 169 518 l 169 514 l 721 250 l 721 147 m 72 1 l 72 90 l 725 90 l 725 1 "},"≥":{"ha":796,"x_min":0,"x_max":0,"o":"m 722 561 l 722 468 l 81 147 l 81 250 l 631 514 l 631 517 l 81 779 l 81 882 m 72 1 l 72 90 l 722 90 l 722 1 "},"◊":{"ha":826,"x_min":0,"x_max":0,"o":"m 465 -103 l 360 -103 l 71 490 l 363 1088 l 465 1088 l 754 490 m 417 992 l 411 992 l 171 492 l 413 -11 l 417 -11 l 656 490 "}," ":{"ha":463,"x_min":0,"x_max":0,"o":""},"­":{"ha":390,"x_min":0,"x_max":0,"o":"m 33 449 b 206 431 92 439 139 431 b 371 449 264 431 303 436 l 371 281 b 194 299 290 296 214 299 b 33 281 125 299 67 288 "},"ˉ":{"ha":463,"x_min":0,"x_max":0,"o":"m 3 957 l 461 957 l 461 832 l 3 832 "},"∕":{"ha":188,"x_min":0,"x_max":0,"o":"m 357 1051 l 450 1051 l -168 -29 l -262 -29 "},"Ω":{"ha":1079,"x_min":0,"x_max":0,"o":"m 992 0 l 639 0 l 628 29 b 815 560 692 153 817 349 b 538 983 814 872 679 983 b 263 553 385 983 263 871 b 447 29 263 349 369 169 l 435 0 l 85 0 l 50 217 l 88 218 b 203 107 119 124 143 107 l 356 107 b 106 564 260 188 106 328 b 542 1029 106 849 296 1029 b 971 575 792 1029 971 858 b 717 107 971 365 828 214 l 878 107 b 989 218 939 107 957 119 l 1029 217 "},"∆":{"ha":943,"x_min":0,"x_max":0,"o":"m 51 0 l 51 39 l 433 1013 l 494 1029 l 889 39 l 889 0 m 424 831 l 135 72 l 719 72 "},"ﬁ":{"ha":753,"x_min":0,"x_max":0,"o":"m 440 903 b 351 939 418 917 385 939 b 267 850 325 939 275 925 b 264 714 264 826 264 815 l 440 714 l 440 625 l 264 625 l 264 181 b 308 4 264 90 290 38 l 82 4 b 126 221 124 90 126 125 l 126 625 l 54 625 b 126 724 58 631 100 683 b 382 1051 124 842 118 1051 b 457 1046 414 1051 436 1049 m 704 714 b 653 514 681 675 653 628 l 653 186 b 704 0 653 79 681 38 l 467 4 b 514 206 508 71 514 129 l 514 538 b 479 714 514 618 513 647 m 600 1007 b 697 910 653 1007 697 964 b 600 811 697 854 653 811 b 501 910 546 811 501 854 b 600 1007 501 964 546 1007 "},"ﬂ":{"ha":753,"x_min":0,"x_max":0,"o":"m 457 624 l 258 624 l 258 181 b 304 0 258 129 264 64 l 75 3 b 121 210 97 38 121 78 l 121 624 l 49 626 l 121 726 b 339 1051 118 831 113 1051 b 442 1036 381 1051 414 1043 l 449 890 b 343 939 435 903 393 939 b 267 881 322 939 282 925 b 258 793 258 856 258 826 l 258 715 l 457 715 m 682 1036 b 649 800 653 903 649 875 l 649 201 b 699 0 649 108 663 61 l 463 0 b 511 231 511 75 511 140 l 511 913 l 507 1010 "},"¹":{"ha":521,"x_min":0,"x_max":0,"o":"m 289 1051 l 314 1051 l 314 589 b 333 506 314 539 325 521 l 176 506 b 206 618 189 525 206 551 l 206 951 l 146 951 "},"³":{"ha":521,"x_min":0,"x_max":0,"o":"m 486 1047 l 486 1035 b 326 806 444 976 350 844 b 440 668 440 767 440 682 b 235 501 440 610 389 501 b 44 560 206 501 122 503 l 132 667 b 243 567 150 574 218 567 b 344 657 313 567 344 617 b 282 743 344 697 313 731 b 182 758 251 756 228 757 l 269 874 b 335 975 285 894 315 944 b 246 981 317 978 297 981 b 61 917 119 981 101 961 l 64 1047 "},"²":{"ha":521,"x_min":0,"x_max":0,"o":"m 89 893 b 271 1051 79 986 163 1051 b 447 915 385 1051 447 978 b 350 736 447 883 436 840 l 215 575 l 339 575 b 474 633 383 575 411 575 l 460 501 b 332 506 414 504 369 506 b 247 507 294 507 265 507 b 40 501 218 507 126 506 l 40 511 b 290 808 97 574 268 779 b 343 911 328 857 343 883 b 263 978 343 965 288 978 b 178 900 218 978 178 949 b 193 836 178 881 181 867 "},"‐":{"ha":390,"x_min":0,"x_max":0,"o":"m 33 449 b 206 431 92 439 139 431 b 371 449 264 431 303 436 l 371 281 b 194 299 290 296 214 299 b 33 281 125 299 67 288 "}}}
